<svg width="903" height="222" viewBox="0 0 903 222" fill="none" xmlns="http://www.w3.org/2000/svg">
<path d="M371.658 112.947V69.0099C358.361 68.9038 333.702 69.0099 333.702 90.0999C333.702 112.947 358.361 112.947 371.658 112.947Z" fill="#55B3BB"/>
<path d="M371.658 138.918V94.9801C383.556 94.874 405.62 94.9801 405.62 116.07C405.62 138.918 383.556 138.918 371.658 138.918Z" fill="#55B3BB"/>
<path d="M110.948 142.341V69.5934C110.948 69.5934 65.0001 61.3849 65.0001 105.9C65.0001 150.415 110.948 142.341 110.948 142.341Z" fill="#CB5394"/>
<path d="M237.851 102.959L309.555 102.959C311.149 90.9839 301.907 67.9549 275.137 67.0337C243.799 65.9553 237.214 90.9839 237.851 102.959Z" fill="#719CEC"/>
<path d="M275.767 140.874L275.767 67.178C263.127 65.5403 238.819 75.0389 237.846 102.552C236.708 134.761 263.127 141.529 275.767 140.874Z" fill="#719CEC"/>
<path d="M527.48 140.916V67H543.462V140.916H527.48Z" fill="#55B3BB"/>
<path d="M801.169 67.0003L837.128 140.916L765.21 140.916L801.169 67.0003Z" fill="#D078F0"/>
<path d="M735.244 140.916L667.321 67V140.916H735.244Z" fill="#E8C891"/>
<path d="M721.26 67H741.237V140.916H721.26V67Z" fill="#E8C891"/>
<path d="M459.558 140.916V67H475.54V140.916H459.558Z" fill="#CB5394"/>
<path d="M429.592 67L503.508 67L503.508 82.9818L429.592 82.9818L429.592 67Z" fill="#CB5394"/>
<path d="M643.349 104.957C643.349 125.92 626.355 142.913 605.392 142.913C584.429 142.913 567.435 125.92 567.435 104.957C567.435 83.9938 584.429 67 605.392 67C626.355 67 643.349 83.9938 643.349 104.957Z" fill="#719CEC"/>
<path d="M184.665 154.272C181.597 154.836 178.408 154.83 175.348 154.223C138.79 146.973 139 117.884 139 72H159.5C159.5 72 154.805 134.536 180.002 134.534C205.199 134.533 200.5 72 200.5 72H221C221 122.238 221 147.601 184.665 154.272Z" fill="white"/>
</svg>
