<svg width="903" height="222" viewBox="0 0 903 222" fill="none" xmlns="http://www.w3.org/2000/svg">
<path d="M137 79L162 115L137 153H157L173 130L189 153H209L185 115L209 79H189L173 100L157 79H137Z" fill="white" stroke="white"/>
<path d="M457.551 150.918L529.469 80.9976V150.918H457.551Z" fill="#CB5394"/>
<path d="M529.469 150.918L457.551 80.9976V150.918H529.469Z" fill="#CB5394"/>
<path d="M64.0407 114.959L135.745 114.959C137.338 102.984 128.096 79.9549 101.327 79.0337C69.9882 77.9553 63.4034 102.984 64.0407 114.959Z" fill="#719CEC"/>
<path d="M101.957 152.874L101.957 79.178C89.3164 77.5403 65.008 87.0389 64.0357 114.552C62.8974 146.761 89.3164 153.529 101.957 152.874Z" fill="#719CEC"/>
<path d="M537.5 114.959L607.212 114.959C608.762 102.984 599.777 79.9549 573.751 79.0337C543.283 77.9553 536.881 102.984 537.5 114.959Z" fill="#719CEC"/>
<path d="M571.422 152.874L571.422 79.178C560.112 77.5403 538.362 87.0389 537.492 114.552C536.474 146.761 560.112 153.529 571.422 152.874Z" fill="#719CEC"/>
<path d="M303.766 114.959L373.479 114.959C375.028 102.984 366.043 79.9549 340.017 79.0337C309.549 77.9553 303.147 102.984 303.766 114.959Z" fill="#719CEC"/>
<path d="M337.688 152.874L337.688 79.178C326.378 77.5403 304.629 87.0389 303.759 114.552C302.74 146.761 326.378 153.529 337.688 152.874Z" fill="#719CEC"/>
<path d="M259.777 79V126.945H259.777C271.775 126.945 295.736 126.945 295.736 103.932C295.736 79 271.775 79 259.777 79Z" fill="#55B3BB"/>
<path d="M223.818 152.916V79H259.777V152.916H223.818Z" fill="#55B3BB"/>
<path d="M429.583 152.916V79H445.565V152.916H429.583Z" fill="#55B3BB"/>
<path d="M729.242 152.916V79H745.223V152.916H729.242Z" fill="#55B3BB"/>
<path d="M699.276 79L773.192 79L773.192 94.9818L699.276 94.9818L699.276 79Z" fill="#55B3BB"/>
<path d="M381.638 79.0305L381.638 132.809C393.613 134.004 416.642 127.072 417.563 106.995C418.642 83.4912 393.613 78.5525 381.638 79.0305Z" fill="#E8C891"/>
<path d="M381.638 152.916V79L417.597 152.916H381.638Z" fill="#E8C891"/>
<path d="M807.153 79.0003L843.112 152.916L771.194 152.916L807.153 79.0003Z" fill="#D078F0"/>
<path d="M683.294 152.916L615.372 79V152.916H683.294Z" fill="#E8C891"/>
<path d="M669.31 79H689.287V152.916H669.31V79Z" fill="#E8C891"/>
</svg>
