<svg width="903" height="222" viewBox="0 0 903 222" fill="none" xmlns="http://www.w3.org/2000/svg">
<path d="M231 75L256 111L231 149H251L267 126L283 149H303L279 111L303 75H283L267 96L251 75H231Z" fill="white" stroke="white"/>
<path d="M624.463 120.947V77.0099C611.165 76.9038 586.506 77.0099 586.506 98.0999C586.506 120.947 611.165 120.947 624.463 120.947Z" fill="#CB5394"/>
<path d="M624.463 146.918V102.98C636.36 102.874 658.424 102.98 658.424 124.07C658.424 146.918 636.36 146.918 624.463 146.918Z" fill="#CB5394"/>
<path d="M153.041 110.959L224.745 110.959C226.338 98.9839 217.096 75.9549 190.327 75.0337C158.988 73.9553 152.403 98.9839 153.041 110.959Z" fill="#719CEC"/>
<path d="M190.957 148.874L190.957 75.178C178.316 73.5403 154.008 83.0389 153.036 110.552C151.897 142.761 178.316 149.529 190.957 148.874Z" fill="#719CEC"/>
<path d="M496.649 110.959L568.353 110.959C569.947 98.9839 560.705 75.9549 533.935 75.0337C502.597 73.9553 496.012 98.9839 496.649 110.959Z" fill="#719CEC"/>
<path d="M534.565 148.874L534.565 75.178C521.925 73.5403 497.616 83.0389 496.644 110.552C495.506 142.761 521.925 149.529 534.565 148.874Z" fill="#719CEC"/>
<path d="M364.759 75V122.945H364.759C376.756 122.945 400.718 122.945 400.718 99.9315C400.718 75 376.756 75 364.759 75Z" fill="#55B3BB"/>
<path d="M328.8 148.916V75H364.759V148.916H328.8Z" fill="#55B3BB"/>
<path d="M434.679 75.0305L434.679 128.809C446.654 130.004 469.683 123.072 470.604 102.995C471.683 79.4912 446.654 74.5525 434.679 75.0305Z" fill="#E8C891"/>
<path d="M434.679 148.916V75L470.638 148.916H434.679Z" fill="#E8C891"/>
<path d="M716.358 75.0003L752.317 148.916L680.399 148.916L716.358 75.0003Z" fill="#D078F0"/>
</svg>
