<svg width="303" height="82" viewBox="0 0 303 82" fill="none" xmlns="http://www.w3.org/2000/svg">
<path d="M93.5308 13.2486C93.0147 12.7059 92.4059 12.2824 91.6911 11.9648C90.9764 11.6471 90.1426 11.4883 89.2029 11.4883C88.2367 11.4883 87.3632 11.6603 86.5823 12.0177C85.8147 12.3751 85.1529 12.8515 84.6235 13.4603C84.0941 14.0559 83.6706 14.7574 83.3926 15.5515C83.1014 16.3456 82.9691 17.1795 82.9691 18.053C82.9691 18.9265 83.1147 19.7603 83.3926 20.5545C83.6838 21.3486 84.0941 22.0501 84.6235 22.6456C85.1661 23.2412 85.8147 23.7177 86.5823 24.0751C87.35 24.4324 88.2235 24.6177 89.2029 24.6177C89.9838 24.6177 90.7382 24.5251 91.4661 24.3265C92.1809 24.128 92.8294 23.8765 93.4117 23.5456V18.4633H89.7853V17.0471H94.947V24.4853C94.0867 24.9883 93.147 25.3721 92.1279 25.6368C91.1088 25.9015 90.1294 26.0339 89.2029 26.0339C88.0779 26.0339 87.0323 25.8353 86.0661 25.4383C85.1 25.0412 84.2661 24.4853 83.5514 23.7706C82.8367 23.0692 82.2941 22.2221 81.8838 21.2559C81.4867 20.2898 81.2882 19.2177 81.2882 18.0662C81.2882 16.9148 81.4867 15.8427 81.8838 14.8765C82.2809 13.9103 82.8367 13.0633 83.5514 12.3618C84.2661 11.6603 85.1 11.1045 86.0661 10.7074C87.0323 10.3103 88.0779 10.1118 89.2029 10.1118C90.4206 10.1118 91.4662 10.2839 92.3397 10.6148C93.2132 10.9456 94.0073 11.4618 94.6823 12.1501L93.5308 13.2486Z" fill="#123B61"/>
<path d="M98.6397 18.7413C98.6397 18.3045 98.6264 17.8545 98.6132 17.3913C98.5867 16.928 98.5735 16.3457 98.5602 15.6045H99.95V17.4707H99.9897C100.082 17.206 100.228 16.9413 100.413 16.6898C100.598 16.4383 100.823 16.2133 101.088 16.0148C101.353 15.8163 101.657 15.6574 102.015 15.5383C102.359 15.4192 102.756 15.353 103.206 15.353C103.603 15.353 103.96 15.3927 104.265 15.4854L103.987 16.8751C103.801 16.8089 103.523 16.7692 103.179 16.7692C102.637 16.7692 102.173 16.8751 101.79 17.0869C101.406 17.2986 101.075 17.5633 100.823 17.881C100.572 18.1986 100.373 18.556 100.254 18.9266C100.135 19.2971 100.069 19.6545 100.069 19.9986V25.6633H98.6529V18.7413H98.6397Z" fill="#123B61"/>
<path d="M112.034 19.4956V19.2442C112.034 17.5103 111.174 16.65 109.466 16.65C108.288 16.65 107.269 17.0471 106.396 17.828L105.535 16.8221C106.475 15.8559 107.891 15.3662 109.784 15.3662C110.274 15.3662 110.737 15.4324 111.187 15.578C111.637 15.7236 112.021 15.9353 112.351 16.2265C112.682 16.5177 112.947 16.8883 113.146 17.325C113.344 17.775 113.45 18.2912 113.45 18.9133V23.4C113.45 23.7839 113.463 24.1942 113.503 24.6177C113.543 25.0412 113.582 25.3853 113.622 25.6633H112.246C112.206 25.4118 112.166 25.1603 112.153 24.8692C112.126 24.578 112.126 24.3 112.126 24.0353H112.074C111.663 24.7103 111.174 25.1868 110.604 25.478C110.035 25.7692 109.347 25.9147 108.54 25.9147C108.103 25.9147 107.666 25.8486 107.256 25.7294C106.846 25.6103 106.475 25.425 106.157 25.1736C105.84 24.9221 105.575 24.6177 105.39 24.2471C105.191 23.8765 105.099 23.453 105.099 22.9765C105.099 22.1692 105.31 21.5206 105.734 21.0574C106.157 20.5942 106.687 20.25 107.322 20.0118C107.957 19.7868 108.632 19.6412 109.36 19.5883C110.088 19.5353 110.737 19.4956 111.346 19.4956H112.034ZM111.306 20.6471C110.949 20.6471 110.499 20.6603 109.969 20.7C109.44 20.7397 108.924 20.8192 108.421 20.9515C107.931 21.0839 107.507 21.2956 107.15 21.5868C106.806 21.878 106.621 22.2618 106.621 22.7647C106.621 23.0956 106.687 23.3736 106.819 23.6118C106.951 23.85 107.137 24.0353 107.362 24.1942C107.587 24.353 107.838 24.4589 108.129 24.5118C108.407 24.578 108.685 24.6044 108.976 24.6044C109.493 24.6044 109.943 24.5118 110.313 24.353C110.697 24.1809 111.015 23.9427 111.266 23.6515C111.518 23.3603 111.716 23.0162 111.835 22.6192C111.954 22.2221 112.021 21.8118 112.021 21.3618V20.6471H111.306Z" fill="#123B61"/>
<path d="M126.751 25.6498H125.335V23.9821H125.295C125.07 24.3262 124.793 24.6174 124.475 24.8556C124.157 25.0939 123.826 25.3056 123.482 25.4512C123.138 25.6101 122.781 25.7159 122.423 25.7953C122.053 25.8615 121.709 25.9012 121.378 25.9012C120.597 25.9012 119.869 25.7689 119.22 25.5042C118.572 25.2395 118.003 24.8689 117.54 24.4056C117.063 23.9292 116.706 23.3733 116.441 22.7248C116.176 22.0762 116.044 21.388 116.044 20.6203C116.044 19.8659 116.176 19.1645 116.441 18.5159C116.706 17.8674 117.076 17.3115 117.54 16.8483C118.016 16.3718 118.572 16.0012 119.22 15.7498C119.869 15.4851 120.584 15.3527 121.378 15.3527C121.709 15.3527 122.053 15.3924 122.423 15.4586C122.794 15.5248 123.138 15.6439 123.482 15.8027C123.826 15.9615 124.157 16.1601 124.475 16.3983C124.793 16.6498 125.057 16.9277 125.295 17.2851H125.335V9.43652H126.751V25.6498ZM117.593 20.6336C117.593 21.1895 117.685 21.7189 117.857 22.1953C118.029 22.6851 118.294 23.1086 118.625 23.4659C118.956 23.8233 119.353 24.1012 119.816 24.313C120.279 24.5248 120.809 24.6306 121.391 24.6306C121.96 24.6306 122.503 24.5248 122.993 24.313C123.482 24.1012 123.906 23.8233 124.263 23.4659C124.62 23.1086 124.898 22.6851 125.097 22.1953C125.295 21.7056 125.401 21.1895 125.401 20.6336C125.401 20.0777 125.295 19.5615 125.097 19.0718C124.898 18.5953 124.62 18.1586 124.263 17.8145C123.906 17.4571 123.482 17.1792 122.993 16.9674C122.503 16.7556 121.96 16.663 121.391 16.663C120.809 16.663 120.279 16.7689 119.816 16.9674C119.353 17.1792 118.956 17.4571 118.625 17.8145C118.294 18.1718 118.043 18.5953 117.857 19.0718C117.685 19.5483 117.593 20.0777 117.593 20.6336Z" fill="#123B61"/>
<path d="M137.088 25.6495C137.062 25.3716 137.049 25.1069 137.035 24.8422C137.022 24.5775 137.022 24.3128 137.022 24.0348H136.982C136.824 24.3128 136.625 24.5642 136.387 24.7892C136.149 25.0142 135.871 25.2128 135.579 25.3716C135.275 25.5437 134.957 25.6628 134.626 25.7554C134.296 25.8481 133.965 25.8878 133.634 25.8878C132.35 25.8878 131.397 25.5437 130.775 24.8687C130.166 24.1937 129.849 23.2142 129.849 21.9569V15.6172H131.265V21.176C131.265 21.7319 131.304 22.2216 131.397 22.6584C131.476 23.0819 131.635 23.4525 131.834 23.7437C132.046 24.0348 132.324 24.2598 132.668 24.4054C133.012 24.551 133.462 24.6304 133.991 24.6304C134.057 24.6304 134.256 24.604 134.587 24.5378C134.918 24.4848 135.262 24.326 135.632 24.0745C136.003 23.8231 136.321 23.426 136.612 22.9098C136.903 22.3937 137.035 21.679 137.035 20.7657V15.6172H138.451V23.4392C138.451 23.704 138.465 24.0613 138.478 24.4716C138.504 24.8819 138.518 25.279 138.557 25.6495H137.088Z" fill="#123B61"/>
<path d="M148.193 19.4956V19.2442C148.193 17.5103 147.332 16.65 145.625 16.65C144.447 16.65 143.428 17.0471 142.554 17.828L141.694 16.8221C142.634 15.8559 144.05 15.3662 145.943 15.3662C146.432 15.3662 146.896 15.4324 147.346 15.578C147.796 15.7236 148.179 15.9353 148.51 16.2265C148.841 16.5177 149.106 16.8883 149.304 17.325C149.503 17.775 149.609 18.2912 149.609 18.9133V23.4C149.609 23.7839 149.622 24.1942 149.662 24.6177C149.701 25.0412 149.741 25.3853 149.781 25.6633H148.404C148.365 25.4118 148.325 25.1603 148.312 24.8692C148.285 24.578 148.285 24.3 148.285 24.0353H148.246C147.835 24.7103 147.346 25.1868 146.776 25.478C146.207 25.7692 145.519 25.9147 144.712 25.9147C144.275 25.9147 143.838 25.8486 143.428 25.7294C143.018 25.6103 142.647 25.425 142.329 25.1736C142.012 24.9221 141.747 24.6177 141.562 24.2471C141.363 23.8765 141.271 23.453 141.271 22.9765C141.271 22.1692 141.482 21.5206 141.906 21.0574C142.329 20.5942 142.859 20.25 143.494 20.0118C144.129 19.7868 144.804 19.6412 145.532 19.5883C146.26 19.5353 146.909 19.4956 147.518 19.4956H148.193ZM147.465 20.6471C147.107 20.6471 146.657 20.6603 146.128 20.7C145.599 20.7397 145.082 20.8192 144.579 20.9515C144.09 21.0839 143.666 21.2956 143.309 21.5868C142.965 21.878 142.779 22.2618 142.779 22.7647C142.779 23.0956 142.846 23.3736 142.978 23.6118C143.11 23.85 143.296 24.0353 143.521 24.1942C143.746 24.353 143.997 24.4589 144.275 24.5118C144.553 24.578 144.831 24.6044 145.122 24.6044C145.638 24.6044 146.088 24.5118 146.459 24.353C146.829 24.1809 147.16 23.9427 147.412 23.6515C147.663 23.3603 147.862 23.0162 147.981 22.6192C148.1 22.2221 148.166 21.8118 148.166 21.3618V20.6471H147.465Z" fill="#123B61"/>
<path d="M158.079 16.9018H155.181V22.818C155.181 23.1886 155.221 23.493 155.287 23.7312C155.353 23.9695 155.459 24.1548 155.591 24.2739C155.723 24.4062 155.869 24.4856 156.054 24.5386C156.24 24.5915 156.425 24.618 156.65 24.618C156.888 24.618 157.14 24.5783 157.404 24.5121C157.656 24.4459 157.894 24.3533 158.106 24.2342L158.172 25.5445C157.643 25.7827 157.007 25.9151 156.266 25.9151C155.988 25.9151 155.71 25.8753 155.419 25.8092C155.128 25.743 154.863 25.5974 154.612 25.3989C154.373 25.2004 154.175 24.9224 154.016 24.5783C153.857 24.2342 153.778 23.7842 153.778 23.2283V16.9018H151.647V15.618H153.765V12.7856H155.181V15.618H158.079V16.9018Z" fill="#123B61"/>
<path d="M160.991 21.0177C161.031 21.5207 161.15 21.9839 161.348 22.4339C161.547 22.8839 161.812 23.2545 162.143 23.5854C162.473 23.903 162.857 24.1545 163.281 24.353C163.704 24.5383 164.168 24.631 164.671 24.631C165.425 24.631 166.087 24.4589 166.629 24.1016C167.185 23.7574 167.596 23.3471 167.887 22.8839L168.985 23.7839C168.39 24.5383 167.728 25.081 167 25.4119C166.285 25.7427 165.504 25.9016 164.671 25.9016C163.929 25.9016 163.241 25.7692 162.606 25.5045C161.971 25.2398 161.428 24.8692 160.965 24.3927C160.501 23.9163 160.144 23.3604 159.879 22.7251C159.615 22.0766 159.482 21.3751 159.482 20.6207C159.482 19.8663 159.615 19.1648 159.866 18.5163C160.118 17.8677 160.475 17.3118 160.938 16.8486C161.401 16.3721 161.931 16.0016 162.553 15.7501C163.162 15.4854 163.837 15.353 164.551 15.353C165.306 15.353 165.994 15.4854 166.59 15.7633C167.185 16.028 167.701 16.3986 168.098 16.8486C168.509 17.2986 168.813 17.828 169.038 18.4369C169.25 19.0457 169.356 19.6942 169.356 20.3824V21.031H160.991V21.0177ZM167.807 19.853C167.807 18.9001 167.516 18.1192 166.947 17.5236C166.378 16.928 165.571 16.6368 164.538 16.6368C164.075 16.6368 163.638 16.7295 163.215 16.9016C162.791 17.0736 162.407 17.3119 162.09 17.6163C161.772 17.9207 161.507 18.2648 161.322 18.6486C161.123 19.0324 161.031 19.4295 161.031 19.853H167.807Z" fill="#123B61"/>
<path d="M177.244 17.9869C177.032 17.5766 176.741 17.2457 176.384 16.9942C176.026 16.756 175.59 16.6368 175.073 16.6368C174.822 16.6368 174.584 16.6633 174.332 16.7295C174.081 16.7824 173.856 16.8751 173.657 16.9942C173.459 17.1133 173.3 17.2721 173.181 17.4574C173.062 17.6427 172.996 17.8677 172.996 18.1457C172.996 18.6221 173.154 18.953 173.485 19.178C173.816 19.3898 174.306 19.5751 174.968 19.7339L176.41 20.078C177.112 20.2369 177.694 20.5545 178.157 21.031C178.621 21.5074 178.859 22.103 178.859 22.8177C178.859 23.3604 178.753 23.8369 178.528 24.2207C178.303 24.6177 178.012 24.9354 177.641 25.1869C177.271 25.4383 176.86 25.6236 176.384 25.7295C175.907 25.8486 175.431 25.9016 174.954 25.9016C174.187 25.9016 173.459 25.756 172.797 25.4648C172.135 25.1736 171.566 24.6707 171.09 23.956L172.307 23.1221C172.598 23.5854 172.956 23.9427 173.393 24.2207C173.829 24.4854 174.346 24.631 174.954 24.631C175.246 24.631 175.523 24.6045 175.815 24.5383C176.106 24.4721 176.357 24.3795 176.582 24.2339C176.807 24.1016 176.979 23.9163 177.125 23.7045C177.257 23.4927 177.323 23.2413 177.323 22.9501C177.323 22.4471 177.138 22.0898 176.768 21.8648C176.397 21.6398 175.947 21.4677 175.418 21.3354L174.041 21.0177C173.869 20.978 173.644 20.8986 173.34 20.806C173.048 20.7001 172.757 20.5545 172.479 20.356C172.201 20.1574 171.963 19.8927 171.765 19.5751C171.566 19.2574 171.46 18.8604 171.46 18.3839C171.46 17.8677 171.566 17.4177 171.765 17.0339C171.976 16.6501 172.254 16.3324 172.598 16.0942C172.943 15.8427 173.34 15.6707 173.79 15.5383C174.24 15.4192 174.69 15.353 175.166 15.353C175.868 15.353 176.516 15.4854 177.112 15.7633C177.707 16.028 178.171 16.4913 178.501 17.153L177.244 17.9869Z" fill="#123B61"/>
<path d="M197.163 20.6339C197.163 21.3883 197.031 22.0897 196.766 22.7383C196.501 23.3868 196.131 23.9427 195.654 24.4192C195.178 24.8956 194.622 25.253 193.973 25.5177C193.325 25.7824 192.61 25.9147 191.816 25.9147C191.048 25.9147 190.334 25.7824 189.685 25.5177C189.037 25.253 188.481 24.8824 188.004 24.4192C187.528 23.9427 187.157 23.3868 186.893 22.7383C186.628 22.0897 186.496 21.4015 186.496 20.6339C186.496 19.8794 186.628 19.178 186.893 18.5294C187.157 17.8809 187.528 17.325 188.004 16.8618C188.481 16.3853 189.037 16.0147 189.685 15.7633C190.334 15.4986 191.048 15.3662 191.816 15.3662C192.597 15.3662 193.325 15.4986 193.973 15.7633C194.622 16.028 195.191 16.3986 195.654 16.8618C196.131 17.3383 196.488 17.8942 196.766 18.5294C197.031 19.178 197.163 19.8794 197.163 20.6339ZM195.628 20.6339C195.628 20.078 195.535 19.5618 195.363 19.0721C195.178 18.5956 194.926 18.1589 194.596 17.8147C194.265 17.4574 193.868 17.1794 193.404 16.9677C192.941 16.7559 192.412 16.6633 191.829 16.6633C191.247 16.6633 190.718 16.7692 190.254 16.9677C189.791 17.1794 189.394 17.4574 189.076 17.8147C188.759 18.1721 188.507 18.5956 188.322 19.0721C188.137 19.5618 188.057 20.078 188.057 20.6339C188.057 21.1897 188.15 21.7192 188.322 22.1956C188.507 22.6853 188.746 23.1089 189.076 23.4662C189.394 23.8236 189.791 24.1015 190.254 24.3133C190.718 24.525 191.247 24.6309 191.829 24.6309C192.412 24.6309 192.941 24.525 193.404 24.3133C193.868 24.1015 194.265 23.8236 194.596 23.4662C194.926 23.1089 195.178 22.6853 195.363 22.1956C195.535 21.7059 195.628 21.1897 195.628 20.6339Z" fill="#123B61"/>
<path d="M204.416 16.9018H202.034V25.6503H200.618V16.9018H198.5V15.618H200.618V12.865C200.618 11.5415 200.922 10.5885 201.544 10.0194C202.153 9.4503 202.974 9.17236 203.993 9.17236C204.191 9.17236 204.39 9.1856 204.601 9.21207C204.813 9.23854 205.012 9.27825 205.21 9.31795L204.959 10.6018C204.787 10.5621 204.615 10.5224 204.416 10.4959C204.231 10.4694 204.046 10.4562 203.86 10.4562C203.476 10.4562 203.159 10.5224 202.921 10.6547C202.682 10.7871 202.497 10.9591 202.365 11.1974C202.232 11.4356 202.153 11.7135 202.113 12.018C202.074 12.3356 202.047 12.6665 202.047 13.0238V15.5915H204.429V16.9018H204.416Z" fill="#123B61"/>
<path d="M212.569 10.4692H217.096C217.731 10.4692 218.326 10.5354 218.922 10.6678C219.504 10.8001 220.034 11.0119 220.484 11.3163C220.947 11.6207 221.304 12.0045 221.582 12.4942C221.86 12.9839 221.993 13.5795 221.993 14.2942C221.993 15.1281 221.754 15.8295 221.291 16.4251C220.828 17.0207 220.166 17.4178 219.306 17.6163V17.656C220.378 17.7487 221.225 18.1192 221.821 18.781C222.429 19.4428 222.734 20.3295 222.734 21.4545C222.734 21.6928 222.668 22.0501 222.549 22.5266C222.429 23.0031 222.178 23.4663 221.794 23.9295C221.41 24.3928 220.854 24.8031 220.126 25.1472C219.399 25.4913 218.419 25.6634 217.215 25.6634H212.582V10.4692H212.569ZM214.104 17.1134H217.215C217.585 17.1134 217.956 17.0736 218.313 16.9678C218.684 16.8751 219.001 16.7163 219.306 16.5045C219.597 16.2928 219.835 16.0148 220.021 15.6839C220.206 15.3531 220.298 14.9295 220.298 14.4531C220.298 14.2942 220.272 14.0692 220.206 13.7913C220.14 13.5001 219.994 13.2222 219.782 12.931C219.557 12.6531 219.24 12.4016 218.803 12.1898C218.379 11.9781 217.797 11.8722 217.069 11.8722H214.104V17.1134ZM214.104 24.2339H217.069C217.625 24.2339 218.141 24.181 218.631 24.0619C219.121 23.9428 219.544 23.7707 219.901 23.5325C220.259 23.2942 220.537 23.0031 220.749 22.6457C220.96 22.2884 221.066 21.8648 221.066 21.3619C221.066 20.356 220.749 19.6148 220.1 19.1251C219.451 18.6486 218.512 18.3972 217.268 18.3972H214.118V24.2339H214.104Z" fill="#123B61"/>
<path d="M225.712 18.7413C225.712 18.3045 225.699 17.8545 225.685 17.3913C225.659 16.928 225.646 16.3457 225.632 15.6045H227.022V17.4707H227.062C227.168 17.206 227.3 16.9413 227.485 16.6898C227.671 16.4383 227.896 16.2133 228.16 16.0148C228.425 15.8163 228.729 15.6574 229.087 15.5383C229.431 15.4192 229.841 15.353 230.278 15.353C230.675 15.353 231.032 15.3927 231.324 15.4854L231.046 16.8751C230.86 16.8089 230.582 16.7692 230.225 16.7692C229.682 16.7692 229.219 16.8751 228.835 17.0869C228.451 17.2986 228.121 17.5633 227.869 17.881C227.618 18.1986 227.419 18.556 227.3 18.9266C227.181 19.2971 227.115 19.6545 227.115 19.9986V25.6633H225.699V18.7413H225.712Z" fill="#123B61"/>
<path d="M234.738 11.7531C234.738 12.0575 234.632 12.2957 234.42 12.4942C234.209 12.6928 233.97 12.7854 233.719 12.7854C233.454 12.7854 233.229 12.6928 233.004 12.4942C232.793 12.2957 232.687 12.0575 232.687 11.7531C232.687 11.4486 232.793 11.2104 233.004 11.0119C233.216 10.8133 233.454 10.7207 233.719 10.7207C233.97 10.7207 234.209 10.8133 234.42 11.0119C234.632 11.2104 234.738 11.4486 234.738 11.7531ZM234.42 25.6501H233.004V15.6178H234.42V25.6501Z" fill="#123B61"/>
<path d="M243.01 16.9018H240.112V22.818C240.112 23.1886 240.151 23.493 240.218 23.7312C240.284 23.9695 240.39 24.1548 240.522 24.2739C240.654 24.4062 240.8 24.4856 240.985 24.5386C241.157 24.5915 241.356 24.618 241.568 24.618C241.806 24.618 242.057 24.5783 242.322 24.5121C242.573 24.4459 242.812 24.3533 243.023 24.2342L243.09 25.5445C242.56 25.7827 241.925 25.9151 241.184 25.9151C240.906 25.9151 240.628 25.8753 240.337 25.8092C240.046 25.743 239.781 25.5974 239.529 25.3989C239.291 25.2004 239.093 24.9224 238.934 24.5783C238.775 24.2342 238.696 23.7842 238.696 23.2283V16.9018H236.578V15.618H238.696V12.7856H240.112V15.618H243.01V16.9018Z" fill="#123B61"/>
<path d="M247.007 11.7531C247.007 12.0575 246.901 12.2957 246.69 12.4942C246.478 12.6928 246.24 12.7854 245.975 12.7854C245.723 12.7854 245.485 12.6928 245.273 12.4942C245.062 12.2957 244.956 12.0575 244.956 11.7531C244.956 11.4486 245.062 11.2104 245.273 11.0119C245.485 10.8133 245.723 10.7207 245.975 10.7207C246.226 10.7207 246.465 10.8133 246.69 11.0119C246.888 11.2104 247.007 11.4486 247.007 11.7531ZM246.676 25.6501H245.26V15.6178H246.676V25.6501Z" fill="#123B61"/>
<path d="M255.412 17.9869C255.2 17.5766 254.909 17.2457 254.551 16.9942C254.194 16.756 253.757 16.6368 253.241 16.6368C253.003 16.6368 252.751 16.6633 252.5 16.7295C252.248 16.7824 252.024 16.8751 251.825 16.9942C251.626 17.1133 251.468 17.2721 251.349 17.4574C251.229 17.6427 251.163 17.8677 251.163 18.1457C251.163 18.6221 251.322 18.953 251.653 19.178C251.984 19.3898 252.473 19.5751 253.135 19.7339L254.578 20.078C255.279 20.2369 255.862 20.5545 256.325 21.031C256.788 21.5074 257.026 22.103 257.026 22.8177C257.026 23.3604 256.921 23.8369 256.696 24.2207C256.471 24.6177 256.179 24.9354 255.809 25.1869C255.438 25.4383 255.028 25.6236 254.551 25.7295C254.075 25.8486 253.598 25.9016 253.122 25.9016C252.354 25.9016 251.626 25.756 250.965 25.4648C250.303 25.1736 249.734 24.6707 249.257 23.956L250.475 23.1221C250.766 23.5854 251.124 23.9427 251.56 24.2207C251.997 24.4854 252.513 24.631 253.122 24.631C253.413 24.631 253.691 24.6045 253.982 24.5383C254.274 24.4721 254.525 24.3795 254.737 24.2339C254.962 24.1016 255.134 23.9163 255.279 23.7045C255.412 23.4927 255.478 23.2413 255.478 22.9501C255.478 22.4471 255.293 22.0898 254.922 21.8648C254.551 21.6398 254.101 21.4677 253.572 21.3354L252.196 21.0177C252.024 20.978 251.799 20.8986 251.494 20.806C251.203 20.7001 250.912 20.5545 250.634 20.356C250.356 20.1574 250.118 19.8927 249.919 19.5751C249.721 19.2574 249.615 18.8604 249.615 18.3839C249.615 17.8677 249.721 17.4177 249.919 17.0339C250.131 16.6501 250.409 16.3324 250.753 16.0942C251.097 15.8427 251.494 15.6707 251.944 15.5383C252.394 15.4192 252.844 15.353 253.321 15.353C254.022 15.353 254.671 15.4854 255.266 15.7633C255.862 16.028 256.325 16.4913 256.656 17.153L255.412 17.9869Z" fill="#123B61"/>
<path d="M259.224 9.43652H260.64V17.2189H260.679C260.838 16.9542 261.037 16.7027 261.275 16.4645C261.513 16.2395 261.791 16.0409 262.096 15.8821C262.4 15.7233 262.718 15.5909 263.049 15.4983C263.379 15.4056 263.71 15.3527 264.041 15.3527C265.325 15.3527 266.278 15.6968 266.9 16.3718C267.509 17.0468 267.826 18.013 267.826 19.2836V25.6498H266.41V20.0909C266.41 18.9792 266.212 18.1189 265.828 17.5233C265.444 16.9277 264.729 16.6365 263.684 16.6365C263.618 16.6365 263.419 16.663 263.088 16.7159C262.757 16.7689 262.413 16.9277 262.043 17.1924C261.672 17.4439 261.354 17.8409 261.063 18.3439C260.772 18.8601 260.64 19.5748 260.64 20.488V25.6365H259.224V9.43652Z" fill="#123B61"/>
<path d="M93.1602 40.46C93.1602 41.0953 93.0808 41.7571 92.9352 42.4586C92.7896 43.16 92.4984 43.8218 92.0881 44.4174C91.6778 45.013 91.1087 45.5159 90.3808 45.913C89.6661 46.31 88.7396 46.4953 87.6014 46.4953C86.4631 46.4953 85.5234 46.2968 84.8087 45.913C84.094 45.5159 83.5249 45.0262 83.1146 44.4174C82.7043 43.8218 82.4131 43.16 82.2675 42.4586C82.122 41.7571 82.0425 41.0821 82.0425 40.46V30.9438H83.5911V40.288C83.5911 41.0159 83.6572 41.638 83.8028 42.1674C83.9484 42.6836 84.1337 43.1336 84.372 43.4909C84.6102 43.8483 84.8749 44.1262 85.1661 44.338C85.4572 44.5497 85.7484 44.7086 86.0528 44.8277C86.344 44.9468 86.622 45.013 86.8999 45.0527C87.1778 45.0924 87.4028 45.1056 87.6146 45.1056C87.7999 45.1056 88.0381 45.0924 88.3161 45.0527C88.594 45.013 88.8852 44.9468 89.1764 44.8277C89.4675 44.7086 89.7587 44.5497 90.0499 44.338C90.3411 44.1262 90.6058 43.8483 90.844 43.4909C91.0822 43.1336 91.2675 42.6968 91.4131 42.1674C91.5587 41.6512 91.6249 41.0159 91.6249 40.288V30.9438H93.1734V40.46H93.1602Z" fill="#123B61"/>
<path d="M97.8588 36.0796C97.8852 36.3576 97.9117 36.6223 97.9117 36.887C97.9117 37.1517 97.9249 37.4164 97.9249 37.6944H97.9646C98.1235 37.4296 98.322 37.1782 98.5602 36.9399C98.7985 36.7149 99.0764 36.5164 99.3676 36.3444C99.672 36.1855 99.9896 36.0532 100.321 35.9605C100.651 35.8679 100.982 35.8149 101.313 35.8149C102.597 35.8149 103.55 36.1591 104.159 36.8341C104.768 37.5091 105.085 38.4885 105.085 39.7458V46.112H103.669V40.5532C103.669 39.4414 103.471 38.5811 103.087 37.9855C102.703 37.3899 101.988 37.0988 100.943 37.0988C100.876 37.0988 100.678 37.1252 100.347 37.1914C100.016 37.2444 99.672 37.4032 99.3014 37.6546C98.9308 37.9061 98.6132 38.3032 98.322 38.8194C98.0308 39.3355 97.8985 40.0502 97.8985 40.9635V46.112H96.4823V38.2899C96.4823 38.012 96.4691 37.6679 96.4558 37.2576C96.4294 36.8473 96.4161 36.4502 96.3764 36.0796H97.8588Z" fill="#123B61"/>
<path d="M110.498 32.2277C110.498 32.5321 110.393 32.7703 110.181 32.9688C109.969 33.1674 109.731 33.26 109.479 33.26C109.228 33.26 108.99 33.1674 108.765 32.9688C108.553 32.7703 108.447 32.5321 108.447 32.2277C108.447 31.9233 108.553 31.6718 108.765 31.4865C108.976 31.288 109.215 31.1953 109.479 31.1953C109.731 31.1953 109.969 31.288 110.181 31.4865C110.393 31.6718 110.498 31.9233 110.498 32.2277ZM110.168 46.1247H108.751V36.0924H110.168V46.1247Z" fill="#123B61"/>
<path d="M118.003 46.1115H116.415L112.338 36.0791H114.006L117.222 44.5365H117.262L120.465 36.0791H122.066L118.003 46.1115Z" fill="#123B61"/>
<path d="M124.899 41.4929C124.938 41.9958 125.057 42.4591 125.269 42.9091C125.468 43.3458 125.732 43.7296 126.063 44.0605C126.394 44.3782 126.765 44.6429 127.201 44.8282C127.625 45.0135 128.088 45.1061 128.591 45.1061C129.346 45.1061 130.007 44.9341 130.55 44.5767C131.106 44.2326 131.516 43.8223 131.807 43.3591L132.906 44.2591C132.31 45.0135 131.649 45.5561 130.921 45.887C130.206 46.2179 129.425 46.3767 128.591 46.3767C127.85 46.3767 127.162 46.2444 126.526 45.9796C125.891 45.7149 125.349 45.3444 124.885 44.8679C124.422 44.3914 124.065 43.8355 123.8 43.2002C123.535 42.5517 123.403 41.8502 123.403 41.0958C123.403 40.3414 123.535 39.6399 123.787 38.9914C124.038 38.3429 124.409 37.787 124.859 37.3105C125.322 36.8341 125.851 36.4767 126.46 36.212C127.082 35.9473 127.744 35.8149 128.459 35.8149C129.213 35.8149 129.901 35.9473 130.497 36.2252C131.093 36.4899 131.596 36.8605 132.006 37.3105C132.416 37.7605 132.721 38.2899 132.946 38.8988C133.157 39.5076 133.263 40.1561 133.263 40.8444V41.4929H124.899ZM131.715 40.3282C131.715 39.3752 131.424 38.5944 130.854 37.9988C130.285 37.4032 129.478 37.112 128.459 37.112C127.996 37.112 127.559 37.2046 127.135 37.3767C126.712 37.5488 126.328 37.787 126.01 38.0914C125.693 38.3958 125.428 38.7399 125.243 39.1238C125.044 39.5076 124.951 39.9046 124.951 40.3282H131.715Z" fill="#123B61"/>
<path d="M135.99 39.2159C135.99 38.7791 135.976 38.3291 135.963 37.8659C135.95 37.4026 135.923 36.8203 135.91 36.0791H137.3V37.9453H137.34C137.432 37.6673 137.578 37.4159 137.763 37.1644C137.948 36.9129 138.173 36.6879 138.438 36.4894C138.703 36.2909 139.007 36.132 139.365 36.0129C139.709 35.8938 140.106 35.8276 140.556 35.8276C140.953 35.8276 141.31 35.8673 141.601 35.96L141.323 37.3497C141.138 37.2835 140.86 37.2438 140.503 37.2438C139.96 37.2438 139.497 37.3497 139.113 37.5482C138.729 37.76 138.398 38.0247 138.147 38.3423C137.896 38.66 137.697 39.0041 137.578 39.3747C137.459 39.7453 137.393 40.1026 137.393 40.4468V46.1115H135.976V39.2159H135.99Z" fill="#123B61"/>
<path d="M148.272 38.4615C148.06 38.0512 147.769 37.7203 147.412 37.4688C147.054 37.2306 146.618 37.0982 146.101 37.0982C145.863 37.0982 145.612 37.1247 145.36 37.1909C145.109 37.2438 144.884 37.3365 144.685 37.4556C144.487 37.5747 144.328 37.7335 144.209 37.9188C144.09 38.1041 144.023 38.3291 144.023 38.607C144.023 39.0703 144.182 39.4144 144.513 39.6394C144.844 39.8512 145.334 40.0365 145.995 40.1953L147.425 40.5394C148.126 40.6982 148.709 41.0159 149.172 41.4923C149.635 41.9688 149.873 42.5644 149.873 43.2791C149.873 43.8218 149.768 44.2982 149.543 44.682C149.318 45.0791 149.026 45.3968 148.669 45.6482C148.298 45.8997 147.888 46.0718 147.412 46.1909C146.935 46.31 146.459 46.3629 145.969 46.3629C145.201 46.3629 144.473 46.2173 143.812 45.9262C143.15 45.635 142.581 45.1321 142.104 44.4173L143.322 43.5835C143.613 44.0468 143.97 44.4041 144.407 44.682C144.844 44.96 145.36 45.0923 145.956 45.0923C146.247 45.0923 146.525 45.0659 146.816 44.9997C147.107 44.9335 147.359 44.8409 147.57 44.6953C147.795 44.5629 147.968 44.3776 148.113 44.1659C148.245 43.9541 148.312 43.7026 148.312 43.4115C148.312 42.9085 148.126 42.5512 147.756 42.3262C147.385 42.1012 146.935 41.9291 146.406 41.7968L145.029 41.4791C144.857 41.4394 144.619 41.36 144.328 41.2673C144.037 41.1615 143.745 41.0159 143.468 40.8173C143.19 40.6188 142.951 40.3541 142.753 40.0365C142.554 39.7188 142.448 39.3218 142.448 38.8453C142.448 38.3291 142.554 37.8791 142.766 37.4953C142.978 37.1115 143.256 36.7938 143.6 36.5556C143.944 36.3041 144.341 36.132 144.791 36.0129C145.241 35.8938 145.691 35.8276 146.168 35.8276C146.869 35.8276 147.518 35.96 148.113 36.2379C148.709 36.5026 149.172 36.9659 149.503 37.6276L148.272 38.4615Z" fill="#123B61"/>
<path d="M154.148 32.2277C154.148 32.5321 154.043 32.7703 153.831 32.9688C153.619 33.1674 153.381 33.26 153.116 33.26C152.865 33.26 152.626 33.1674 152.415 32.9688C152.203 32.7703 152.097 32.5321 152.097 32.2277C152.097 31.9233 152.203 31.6718 152.415 31.4865C152.626 31.288 152.865 31.1953 153.116 31.1953C153.368 31.1953 153.606 31.288 153.831 31.4865C154.043 31.6718 154.148 31.9233 154.148 32.2277ZM153.831 46.1247H152.415V36.0924H153.831V46.1247Z" fill="#123B61"/>
<path d="M162.434 37.3628H159.535V43.279C159.535 43.6496 159.575 43.954 159.641 44.1922C159.707 44.4305 159.813 44.6158 159.946 44.7349C160.078 44.8672 160.223 44.9466 160.409 44.9996C160.581 45.0525 160.779 45.0658 161.004 45.0658C161.243 45.0658 161.494 45.026 161.759 44.9599C162.01 44.8937 162.248 44.801 162.46 44.6819L162.526 45.9922C161.997 46.2305 161.362 46.3628 160.621 46.3628C160.343 46.3628 160.065 46.3231 159.773 46.2569C159.482 46.1908 159.218 46.0452 158.966 45.8466C158.728 45.6481 158.529 45.3702 158.371 45.026C158.212 44.6819 158.132 44.2319 158.132 43.676V37.3496H156.015V36.0658H158.132V33.2334H159.548V36.0658H162.447V37.3628H162.434Z" fill="#123B61"/>
<path d="M166.418 32.2277C166.418 32.5321 166.312 32.7703 166.1 32.9688C165.888 33.1674 165.65 33.26 165.398 33.26C165.147 33.26 164.909 33.1674 164.684 32.9688C164.472 32.7703 164.366 32.5321 164.366 32.2277C164.366 31.9233 164.472 31.6718 164.684 31.4865C164.895 31.288 165.134 31.1953 165.398 31.1953C165.65 31.1953 165.888 31.288 166.1 31.4865C166.312 31.6718 166.418 31.9233 166.418 32.2277ZM166.1 46.1247H164.684V36.0924H166.1V46.1247Z" fill="#123B61"/>
<path d="M170.494 41.4929C170.534 41.9958 170.666 42.4591 170.865 42.9091C171.063 43.3458 171.328 43.7296 171.659 44.0605C171.99 44.3782 172.373 44.6429 172.797 44.8282C173.22 45.0135 173.684 45.1061 174.187 45.1061C174.941 45.1061 175.603 44.9341 176.145 44.5767C176.701 44.2326 177.112 43.8223 177.403 43.3591L178.501 44.2591C177.906 45.0135 177.244 45.5561 176.516 45.887C175.801 46.2179 175.02 46.3767 174.187 46.3767C173.445 46.3767 172.757 46.2444 172.122 45.9796C171.487 45.7149 170.931 45.3444 170.481 44.8679C170.018 44.3914 169.66 43.8355 169.395 43.2002C169.131 42.5517 168.998 41.8502 168.998 41.0958C168.998 40.3414 169.131 39.6399 169.382 38.9914C169.634 38.3429 169.991 37.787 170.454 37.3105C170.904 36.8341 171.447 36.4767 172.056 36.212C172.665 35.9473 173.34 35.8149 174.054 35.8149C174.809 35.8149 175.497 35.9473 176.093 36.2252C176.688 36.4899 177.204 36.8605 177.601 37.3105C178.012 37.7605 178.316 38.2899 178.528 38.8988C178.74 39.5076 178.845 40.1561 178.845 40.8444V41.4929H170.494ZM177.31 40.3282C177.31 39.3752 177.019 38.5944 176.45 37.9988C175.881 37.4032 175.073 37.112 174.041 37.112C173.578 37.112 173.141 37.2046 172.718 37.3767C172.294 37.5488 171.91 37.787 171.593 38.0914C171.275 38.3958 171.01 38.7399 170.825 39.1238C170.626 39.5076 170.534 39.9046 170.534 40.3282H177.31Z" fill="#123B61"/>
<path d="M186.747 38.4615C186.535 38.0512 186.244 37.7203 185.887 37.4688C185.529 37.2306 185.093 37.0982 184.576 37.0982C184.338 37.0982 184.087 37.1247 183.835 37.1909C183.584 37.2438 183.359 37.3365 183.16 37.4556C182.962 37.5747 182.803 37.7335 182.684 37.9188C182.565 38.1041 182.498 38.3291 182.498 38.607C182.498 39.0703 182.657 39.4144 182.988 39.6394C183.319 39.8512 183.809 40.0365 184.471 40.1953L185.9 40.5394C186.601 40.6982 187.184 41.0159 187.647 41.4923C188.11 41.9688 188.348 42.5644 188.348 43.2791C188.348 43.8218 188.243 44.2982 188.018 44.682C187.793 45.0791 187.501 45.3968 187.131 45.6482C186.773 45.8997 186.35 46.0718 185.873 46.1909C185.397 46.31 184.921 46.3629 184.431 46.3629C183.663 46.3629 182.935 46.2173 182.273 45.9262C181.612 45.635 181.043 45.1321 180.566 44.4173L181.784 43.5835C182.075 44.0468 182.432 44.4041 182.869 44.682C183.306 44.96 183.822 45.0923 184.418 45.0923C184.709 45.0923 184.987 45.0659 185.278 44.9997C185.569 44.9335 185.821 44.8409 186.046 44.6953C186.271 44.5629 186.443 44.3776 186.588 44.1659C186.72 43.9541 186.787 43.7026 186.787 43.4115C186.787 42.9085 186.601 42.5512 186.231 42.3262C185.86 42.1012 185.41 41.9291 184.881 41.7968L183.504 41.4791C183.332 41.4394 183.107 41.36 182.803 41.2673C182.512 41.1615 182.221 41.0159 181.943 40.8173C181.665 40.6188 181.426 40.3541 181.228 40.0365C181.029 39.7188 180.923 39.3218 180.923 38.8453C180.923 38.3291 181.029 37.8791 181.228 37.4953C181.44 37.1115 181.718 36.7938 182.062 36.5556C182.406 36.3041 182.803 36.132 183.253 36.0129C183.703 35.8938 184.153 35.8276 184.629 35.8276C185.331 35.8276 185.979 35.96 186.588 36.2379C187.184 36.5026 187.647 36.9659 187.978 37.6276L186.747 38.4615Z" fill="#123B61"/>
<path d="M196.779 46.112H194.979L201.584 30.9312H203.079L209.684 46.112H207.884L206.216 42.1282H198.447L196.779 46.112ZM199.029 40.712H205.607L202.325 32.7312L199.029 40.712Z" fill="#123B61"/>
<path d="M216.553 38.4615C216.341 38.0512 216.05 37.7203 215.693 37.4688C215.335 37.2306 214.898 37.0982 214.382 37.0982C214.144 37.0982 213.893 37.1247 213.641 37.1909C213.39 37.2438 213.165 37.3365 212.966 37.4556C212.768 37.5747 212.609 37.7335 212.49 37.9188C212.371 38.1041 212.304 38.3291 212.304 38.607C212.304 39.0703 212.463 39.4144 212.794 39.6394C213.125 39.8512 213.615 40.0365 214.276 40.1953L215.719 40.5394C216.421 40.6982 217.003 41.0159 217.466 41.4923C217.929 41.9688 218.168 42.5644 218.168 43.2791C218.168 43.8218 218.062 44.2982 217.837 44.682C217.612 45.0791 217.321 45.3968 216.963 45.6482C216.593 45.8997 216.182 46.0718 215.706 46.1909C215.229 46.31 214.753 46.3629 214.263 46.3629C213.496 46.3629 212.768 46.2173 212.106 45.9262C211.444 45.635 210.875 45.1321 210.398 44.4173L211.616 43.5835C211.907 44.0468 212.265 44.4041 212.701 44.682C213.138 44.96 213.654 45.0923 214.25 45.0923C214.541 45.0923 214.819 45.0659 215.11 44.9997C215.401 44.9335 215.653 44.8409 215.878 44.6953C216.103 44.5629 216.275 44.3776 216.421 44.1659C216.553 43.9541 216.619 43.7026 216.619 43.4115C216.619 42.9085 216.434 42.5512 216.063 42.3262C215.693 42.1012 215.243 41.9291 214.713 41.7968L213.337 41.4791C213.165 41.4394 212.926 41.36 212.635 41.2673C212.344 41.1615 212.053 41.0159 211.775 40.8173C211.497 40.6188 211.259 40.3541 211.06 40.0365C210.862 39.7188 210.756 39.3218 210.756 38.8453C210.756 38.3291 210.862 37.8791 211.06 37.4953C211.272 37.1115 211.55 36.7938 211.894 36.5556C212.238 36.3041 212.635 36.132 213.085 36.0129C213.535 35.8938 213.985 35.8276 214.462 35.8276C215.163 35.8276 215.812 35.96 216.407 36.2379C217.003 36.5026 217.466 36.9659 217.797 37.6276L216.553 38.4615Z" fill="#123B61"/>
<path d="M225.685 38.4615C225.474 38.0512 225.182 37.7203 224.825 37.4688C224.468 37.2306 224.031 37.0982 223.515 37.0982C223.276 37.0982 223.025 37.1247 222.774 37.1909C222.522 37.2438 222.297 37.3365 222.099 37.4556C221.9 37.5747 221.741 37.7335 221.622 37.9188C221.503 38.1041 221.437 38.3291 221.437 38.607C221.437 39.0703 221.596 39.4144 221.926 39.6394C222.257 39.8512 222.747 40.0365 223.409 40.1953L224.838 40.5394C225.54 40.6982 226.122 41.0159 226.585 41.4923C227.048 41.9688 227.287 42.5644 227.287 43.2791C227.287 43.8218 227.181 44.2982 226.956 44.682C226.731 45.0791 226.44 45.3968 226.069 45.6482C225.712 45.8997 225.288 46.0718 224.812 46.1909C224.335 46.31 223.859 46.3629 223.369 46.3629C222.601 46.3629 221.874 46.2173 221.212 45.9262C220.55 45.635 219.981 45.1321 219.504 44.4173L220.722 43.5835C221.013 44.0468 221.371 44.4041 221.807 44.682C222.244 44.96 222.76 45.0923 223.356 45.0923C223.647 45.0923 223.925 45.0659 224.216 44.9997C224.507 44.9335 224.759 44.8409 224.971 44.6953C225.196 44.5629 225.368 44.3776 225.513 44.1659C225.646 43.9541 225.712 43.7026 225.712 43.4115C225.712 42.9085 225.526 42.5512 225.156 42.3262C224.785 42.1012 224.335 41.9291 223.806 41.7968L222.429 41.4791C222.257 41.4394 222.019 41.36 221.728 41.2673C221.437 41.1615 221.146 41.0159 220.868 40.8173C220.59 40.6188 220.351 40.3541 220.153 40.0365C219.954 39.7188 219.849 39.3218 219.849 38.8453C219.849 38.3291 219.954 37.8791 220.166 37.4953C220.378 37.1115 220.656 36.7938 221 36.5556C221.344 36.3041 221.741 36.132 222.191 36.0129C222.641 35.8938 223.091 35.8276 223.568 35.8276C224.269 35.8276 224.918 35.96 225.513 36.2379C226.109 36.5026 226.572 36.9659 226.903 37.6276L225.685 38.4615Z" fill="#123B61"/>
<path d="M239.648 41.0958C239.648 41.8502 239.516 42.5517 239.251 43.2002C238.987 43.8488 238.616 44.4047 238.14 44.8679C237.663 45.3444 237.107 45.7149 236.459 45.9664C235.81 46.2311 235.096 46.3635 234.301 46.3635C233.534 46.3635 232.819 46.2311 232.171 45.9664C231.522 45.7017 230.966 45.3311 230.49 44.8679C230.013 44.3914 229.656 43.8355 229.378 43.2002C229.113 42.5517 228.981 41.8635 228.981 41.0958C228.981 40.3414 229.113 39.6399 229.378 38.9914C229.643 38.3429 230.013 37.787 230.49 37.3105C230.966 36.8341 231.522 36.4767 232.171 36.212C232.819 35.9473 233.534 35.8149 234.301 35.8149C235.082 35.8149 235.81 35.9473 236.459 36.212C237.107 36.4767 237.676 36.8473 238.14 37.3105C238.616 37.787 238.973 38.3429 239.251 38.9914C239.516 39.6399 239.648 40.3414 239.648 41.0958ZM238.1 41.0958C238.1 40.5399 238.007 40.0238 237.835 39.5341C237.65 39.0444 237.398 38.6208 237.068 38.2635C236.737 37.9061 236.34 37.6282 235.876 37.4164C235.413 37.2046 234.884 37.112 234.301 37.112C233.719 37.112 233.19 37.2179 232.726 37.4164C232.263 37.6282 231.866 37.9061 231.548 38.2635C231.231 38.6208 230.979 39.0444 230.794 39.5341C230.609 40.0238 230.529 40.5399 230.529 41.0958C230.529 41.6517 230.622 42.1811 230.794 42.6708C230.966 43.1605 231.218 43.5841 231.548 43.9282C231.866 44.2855 232.263 44.5635 232.726 44.7752C233.19 44.987 233.719 45.0796 234.301 45.0796C234.884 45.0796 235.413 44.9738 235.876 44.7752C236.34 44.5635 236.737 44.2855 237.068 43.9282C237.398 43.5708 237.65 43.1473 237.835 42.6708C238.007 42.1811 238.1 41.6517 238.1 41.0958Z" fill="#123B61"/>
<path d="M249.535 38.4351C249.297 38.0645 248.953 37.7468 248.516 37.4954C248.079 37.2439 247.59 37.1115 247.02 37.1115C246.438 37.0983 245.909 37.1909 245.445 37.3895C244.982 37.588 244.585 37.8659 244.254 38.2233C243.923 38.5806 243.672 39.0042 243.5 39.4939C243.328 39.9836 243.248 40.5262 243.248 41.0953C243.248 41.6645 243.328 42.2071 243.5 42.6968C243.672 43.1865 243.923 43.6233 244.254 43.9674C244.585 44.3248 244.982 44.6027 245.445 44.8012C245.909 44.9998 246.438 45.0924 247.02 45.0792C247.576 45.0792 248.079 44.9468 248.516 44.6954C248.953 44.4439 249.297 44.1262 249.535 43.7556L250.7 44.6292C250.197 45.2115 249.641 45.6483 249.006 45.9262C248.384 46.2042 247.722 46.3498 247.034 46.363C246.226 46.3762 245.485 46.2571 244.823 45.9924C244.162 45.7277 243.606 45.3571 243.143 44.8939C242.679 44.4174 242.322 43.8615 242.084 43.213C241.845 42.5645 241.713 41.863 241.713 41.0953C241.713 40.3409 241.832 39.6262 242.084 38.9777C242.322 38.3292 242.679 37.7601 243.143 37.2968C243.606 36.8204 244.175 36.463 244.823 36.1851C245.485 35.9204 246.213 35.8012 247.034 35.8145C247.722 35.8277 248.384 35.9733 249.006 36.2512C249.641 36.5292 250.197 36.9659 250.7 37.5483L249.535 38.4351Z" fill="#123B61"/>
<path d="M254.618 32.2277C254.618 32.5321 254.512 32.7703 254.3 32.9688C254.088 33.1674 253.85 33.26 253.585 33.26C253.334 33.26 253.096 33.1674 252.884 32.9688C252.672 32.7703 252.566 32.5321 252.566 32.2277C252.566 31.9233 252.672 31.6718 252.884 31.4865C253.096 31.288 253.334 31.1953 253.585 31.1953C253.837 31.1953 254.075 31.288 254.3 31.4865C254.512 31.6718 254.618 31.9233 254.618 32.2277ZM254.287 46.1247H252.871V36.0924H254.287V46.1247Z" fill="#123B61"/>
<path d="M264.134 39.957V39.7056C264.134 37.9718 263.273 37.1115 261.566 37.1115C260.388 37.1115 259.369 37.5085 258.496 38.2894L257.635 37.2835C258.575 36.3173 259.991 35.8276 261.884 35.8276C262.373 35.8276 262.837 35.8938 263.287 36.0394C263.737 36.185 264.121 36.3968 264.451 36.6879C264.782 36.9791 265.047 37.3497 265.246 37.7865C265.444 38.2365 265.55 38.7659 265.55 39.3747V43.8615C265.55 44.2453 265.563 44.6556 265.603 45.0659C265.643 45.4894 265.682 45.8335 265.722 46.1115H264.346C264.306 45.8732 264.266 45.6085 264.253 45.3173C264.226 45.0262 264.226 44.7482 264.226 44.4835H264.187C263.776 45.1585 263.287 45.635 262.718 45.9262C262.148 46.2173 261.46 46.3629 260.653 46.3629C260.216 46.3629 259.779 46.2968 259.369 46.1776C258.959 46.0585 258.588 45.8732 258.257 45.6218C257.94 45.3703 257.675 45.0659 257.49 44.6953C257.291 44.3247 257.198 43.9144 257.198 43.4247C257.198 42.6041 257.41 41.9688 257.834 41.5056C258.257 41.0423 258.787 40.6982 259.422 40.46C260.057 40.235 260.732 40.0894 261.46 40.0365C262.188 39.9835 262.837 39.9438 263.446 39.9438H264.134V39.957ZM263.406 41.1218C263.048 41.1218 262.598 41.135 262.069 41.1747C261.54 41.2144 261.023 41.2938 260.534 41.4262C260.044 41.5585 259.621 41.7703 259.263 42.0615C258.906 42.3526 258.734 42.7365 258.734 43.2394C258.734 43.5703 258.8 43.8482 258.932 44.0865C259.065 44.3247 259.25 44.51 259.475 44.6688C259.7 44.8144 259.965 44.9203 260.243 44.9865C260.521 45.0526 260.798 45.0791 261.09 45.0791C261.606 45.0791 262.056 44.9865 262.426 44.8276C262.797 44.6556 263.128 44.4173 263.379 44.1262C263.631 43.835 263.829 43.4909 263.948 43.0938C264.068 42.6968 264.134 42.2865 264.134 41.8365V41.1085H263.406V41.1218Z" fill="#123B61"/>
<path d="M274.021 37.3628H271.122V43.279C271.122 43.6496 271.162 43.954 271.228 44.1922C271.294 44.4305 271.4 44.6158 271.532 44.7349C271.665 44.8672 271.81 44.9466 271.996 44.9996C272.168 45.0525 272.366 45.0658 272.591 45.0658C272.829 45.0658 273.081 45.026 273.346 44.9599C273.597 44.8937 273.835 44.801 274.06 44.6819L274.126 45.9922C273.597 46.2305 272.962 46.3628 272.221 46.3628C271.943 46.3628 271.665 46.3231 271.373 46.2569C271.082 46.1908 270.818 46.0452 270.566 45.8466C270.328 45.6481 270.129 45.3702 269.971 45.026C269.812 44.6819 269.732 44.2319 269.732 43.676V37.3496H267.615V36.0658H269.732V33.2334H271.148V36.0658H274.047V37.3628H274.021Z" fill="#123B61"/>
<path d="M278.004 32.2277C278.004 32.5321 277.898 32.7703 277.687 32.9688C277.475 33.1674 277.237 33.26 276.972 33.26C276.721 33.26 276.482 33.1674 276.271 32.9688C276.059 32.7703 275.953 32.5321 275.953 32.2277C275.953 31.9233 276.059 31.6718 276.271 31.4865C276.482 31.288 276.721 31.1953 276.972 31.1953C277.223 31.1953 277.462 31.288 277.687 31.4865C277.898 31.6718 278.004 31.9233 278.004 32.2277ZM277.687 46.1247H276.271V36.0924H277.687V46.1247Z" fill="#123B61"/>
<path d="M291.24 41.0958C291.24 41.8502 291.107 42.5517 290.843 43.2002C290.578 43.8488 290.207 44.4047 289.744 44.8679C289.268 45.3444 288.712 45.7149 288.063 45.9664C287.415 46.2311 286.7 46.3635 285.906 46.3635C285.138 46.3635 284.423 46.2311 283.775 45.9664C283.126 45.7017 282.571 45.3311 282.094 44.8679C281.631 44.3914 281.26 43.8355 280.996 43.2002C280.731 42.5517 280.598 41.8635 280.598 41.0958C280.598 40.3414 280.731 39.6399 280.996 38.9914C281.26 38.3429 281.631 37.787 282.094 37.3105C282.571 36.8341 283.126 36.4767 283.775 36.212C284.423 35.9473 285.138 35.8149 285.906 35.8149C286.687 35.8149 287.415 35.9473 288.063 36.212C288.712 36.4767 289.281 36.8473 289.744 37.3105C290.221 37.787 290.578 38.3429 290.843 38.9914C291.107 39.6399 291.24 40.3414 291.24 41.0958ZM289.691 41.0958C289.691 40.5399 289.598 40.0238 289.426 39.5341C289.241 39.0444 288.99 38.6208 288.659 38.2635C288.328 37.9061 287.931 37.6282 287.468 37.4164C287.004 37.2046 286.475 37.112 285.893 37.112C285.31 37.112 284.781 37.2179 284.318 37.4164C283.854 37.6282 283.457 37.9061 283.14 38.2635C282.822 38.6208 282.571 39.0444 282.385 39.5341C282.2 40.0238 282.121 40.5399 282.121 41.0958C282.121 41.6517 282.213 42.1811 282.385 42.6708C282.571 43.1605 282.809 43.5841 283.14 43.9282C283.457 44.2855 283.854 44.5635 284.318 44.7752C284.781 44.987 285.31 45.0796 285.893 45.0796C286.475 45.0796 287.004 44.9738 287.468 44.7752C287.931 44.5635 288.328 44.2855 288.659 43.9282C288.99 43.5708 289.241 43.1473 289.426 42.6708C289.598 42.1811 289.691 41.6517 289.691 41.0958Z" fill="#123B61"/>
<path d="M295.157 36.0796C295.184 36.3576 295.197 36.6223 295.21 36.887C295.223 37.1517 295.223 37.4164 295.223 37.6944H295.263C295.422 37.4296 295.621 37.1782 295.859 36.9399C296.097 36.7149 296.375 36.5164 296.666 36.3444C296.971 36.1855 297.288 36.0532 297.619 35.9605C297.95 35.8679 298.281 35.8149 298.612 35.8149C299.896 35.8149 300.848 36.1591 301.471 36.8341C302.079 37.5091 302.397 38.4885 302.397 39.7458V46.112H300.981V40.5532C300.981 39.4414 300.782 38.5811 300.398 37.9855C300.015 37.3899 299.3 37.0988 298.254 37.0988C298.188 37.0988 297.99 37.1252 297.659 37.1914C297.328 37.2444 296.984 37.4032 296.613 37.6546C296.243 37.9061 295.925 38.3032 295.634 38.8194C295.343 39.3355 295.21 40.0502 295.21 40.9635V46.112H293.794V38.2899C293.794 38.012 293.781 37.6679 293.768 37.2576C293.741 36.8473 293.728 36.4502 293.688 36.0796H295.157Z" fill="#123B61"/>
<path d="M91.9426 61.5709C91.9426 62.3253 91.8103 63.0268 91.5456 63.6753C91.2808 64.3238 90.9103 64.8797 90.447 65.3562C89.9706 65.8326 89.4147 66.19 88.7661 66.4547C88.1176 66.7194 87.4029 66.8517 86.6088 66.8517C85.8411 66.8517 85.1264 66.7194 84.4779 66.4547C83.8294 66.19 83.2603 65.8194 82.797 65.3562C82.3206 64.8797 81.9632 64.3238 81.6853 63.6753C81.4206 63.0268 81.2882 62.3385 81.2882 61.5709C81.2882 60.8165 81.4206 60.115 81.6853 59.4665C81.95 58.8179 82.3206 58.262 82.797 57.7988C83.2735 57.3223 83.8294 56.9518 84.4779 56.7003C85.1264 56.4356 85.8411 56.3032 86.6088 56.3032C87.3897 56.3032 88.1176 56.4356 88.7661 56.7003C89.4147 56.965 89.9838 57.3356 90.447 57.7988C90.9235 58.2753 91.2808 58.8312 91.5456 59.4665C91.8103 60.115 91.9426 60.8165 91.9426 61.5709ZM90.3941 61.5709C90.3941 61.015 90.3014 60.4988 90.1294 60.0091C89.9441 59.5326 89.6926 59.0959 89.3617 58.7517C89.0309 58.3944 88.6338 58.1165 88.1706 57.9047C87.7073 57.6929 87.1779 57.6003 86.5956 57.6003C86.0132 57.6003 85.4838 57.7062 85.0206 57.9047C84.5573 58.1165 84.1603 58.3944 83.8426 58.7517C83.525 59.1091 83.2735 59.5326 83.0882 60.0091C82.9161 60.4988 82.8235 61.015 82.8235 61.5709C82.8235 62.1268 82.9161 62.6562 83.0882 63.1326C83.2603 63.6223 83.5117 64.0459 83.8426 64.4032C84.1603 64.7606 84.5573 65.0385 85.0206 65.2503C85.4838 65.462 86.0132 65.5679 86.5956 65.5679C87.1779 65.5679 87.7073 65.462 88.1706 65.2503C88.6338 65.0385 89.0309 64.7606 89.3617 64.4032C89.6926 64.0459 89.9441 63.6223 90.1294 63.1326C90.3147 62.6562 90.3941 62.1268 90.3941 61.5709Z" fill="#123B61"/>
<path d="M99.1955 57.8382H96.8132V66.5868H95.397V57.8382H93.2794V56.5544H95.397V53.8147C95.397 52.4912 95.7014 51.5382 96.3235 50.9691C96.9323 50.4 97.7529 50.1221 98.772 50.1221C98.9705 50.1221 99.1691 50.1353 99.3808 50.1618C99.5926 50.1883 99.7911 50.228 99.9897 50.2677L99.7382 51.5515C99.5661 51.5118 99.3941 51.4721 99.1955 51.4456C99.0102 51.4191 98.8249 51.4059 98.6396 51.4059C98.2558 51.4059 97.9382 51.4721 97.6999 51.6044C97.4617 51.7368 97.2764 51.9088 97.1441 52.1471C97.0117 52.3853 96.9323 52.6632 96.8926 52.9677C96.8529 53.2853 96.8264 53.6162 96.8264 53.9735V56.5412H99.2088V57.8382H99.1955Z" fill="#123B61"/>
<path d="M118.188 60.9219C118.188 61.5572 118.109 62.219 117.963 62.9337C117.818 63.6352 117.526 64.2969 117.116 64.8925C116.706 65.4881 116.137 65.9911 115.409 66.3881C114.681 66.7852 113.754 66.9705 112.629 66.9705C111.491 66.9705 110.565 66.7719 109.837 66.3881C109.122 65.9911 108.553 65.5013 108.143 64.8925C107.732 64.2969 107.441 63.6352 107.296 62.9337C107.15 62.219 107.071 61.5572 107.071 60.9219V51.4058H108.619V60.7631C108.619 61.4911 108.685 62.1131 108.831 62.6425C108.976 63.1587 109.162 63.6087 109.4 63.9528C109.638 64.3102 109.903 64.5881 110.194 64.7999C110.485 65.0116 110.776 65.1705 111.081 65.2896C111.372 65.4087 111.65 65.4749 111.928 65.5146C112.193 65.5543 112.431 65.5675 112.629 65.5675C112.815 65.5675 113.053 65.5543 113.331 65.5146C113.609 65.4749 113.9 65.4087 114.191 65.2896C114.482 65.1705 114.773 65.0116 115.065 64.7999C115.356 64.5881 115.621 64.3102 115.859 63.9528C116.097 63.5955 116.282 63.1587 116.428 62.6425C116.573 62.1264 116.64 61.4911 116.64 60.7631V51.4058H118.188V60.9219Z" fill="#123B61"/>
<path d="M121.682 59.6778C121.682 59.2278 121.669 58.791 121.656 58.3278C121.629 57.8646 121.616 57.2822 121.603 56.541H122.993V58.4072H123.032C123.125 58.1425 123.27 57.8778 123.456 57.6263C123.641 57.3748 123.866 57.1498 124.131 56.9513C124.395 56.7528 124.7 56.594 125.057 56.4748C125.401 56.3557 125.812 56.2896 126.248 56.2896C126.645 56.2896 127.003 56.3293 127.294 56.4219L127.016 57.8116C126.831 57.7454 126.553 57.7057 126.209 57.7057C125.666 57.7057 125.203 57.8116 124.819 58.0234C124.435 58.2351 124.104 58.4998 123.853 58.8175C123.601 59.1351 123.403 59.4925 123.284 59.8631C123.165 60.2337 123.098 60.591 123.098 60.9351V66.5998H121.682V59.6778Z" fill="#123B61"/>
<path d="M135.897 66.5872C135.871 66.3093 135.844 66.0445 135.844 65.7798C135.831 65.5151 135.831 65.2504 135.831 64.9725H135.791C135.632 65.2504 135.434 65.4887 135.196 65.7269C134.957 65.9519 134.679 66.1504 134.388 66.3093C134.084 66.4813 133.766 66.6004 133.435 66.6931C133.104 66.7857 132.76 66.8254 132.443 66.8254C131.159 66.8254 130.206 66.4945 129.597 65.8063C128.988 65.1313 128.671 64.1519 128.671 62.8945V56.5284H130.087V62.0872C130.087 62.6431 130.126 63.1328 130.219 63.5695C130.312 63.9931 130.457 64.3637 130.656 64.6548C130.868 64.946 131.146 65.171 131.49 65.3166C131.834 65.4622 132.284 65.5416 132.813 65.5416C132.879 65.5416 133.078 65.5151 133.409 65.449C133.74 65.396 134.084 65.2372 134.454 64.9725C134.825 64.721 135.143 64.324 135.434 63.8078C135.725 63.2916 135.857 62.5769 135.857 61.6637V56.5151H137.273V64.3372C137.273 64.6019 137.287 64.9593 137.3 65.3695C137.326 65.7798 137.34 66.1769 137.379 66.5475H135.897V66.5872Z" fill="#123B61"/>
<path d="M141.35 68.5984C141.76 69.1543 142.303 69.6043 142.965 69.9352C143.626 70.2661 144.368 70.4381 145.188 70.4381C145.903 70.4381 146.512 70.3322 147.015 70.1205C147.518 69.9087 147.915 69.6308 148.232 69.2734C148.537 68.9161 148.762 68.4925 148.894 68.0161C149.026 67.5396 149.106 67.0234 149.106 66.4808V64.6808H149.066C148.603 65.369 148.047 65.8455 147.398 66.1367C146.737 66.4278 146.048 66.5602 145.321 66.5602C144.593 66.5602 143.904 66.4278 143.269 66.1764C142.634 65.9249 142.078 65.5675 141.601 65.1175C141.125 64.6675 140.754 64.1249 140.49 63.5028C140.212 62.8808 140.079 62.1925 140.079 61.4646C140.079 60.7367 140.212 60.0617 140.463 59.4264C140.715 58.8043 141.072 58.2484 141.522 57.772C141.972 57.2955 142.501 56.9249 143.123 56.6734C143.746 56.4087 144.434 56.2764 145.175 56.2764C145.479 56.2764 145.797 56.3028 146.128 56.3558C146.459 56.4087 146.803 56.5146 147.134 56.6602C147.465 56.8058 147.796 56.9911 148.126 57.2425C148.457 57.494 148.762 57.8117 149.053 58.1955H149.093V56.5278H150.509V66.4808C150.509 67.0234 150.443 67.6058 150.31 68.2146C150.178 68.8234 149.913 69.3925 149.516 69.9087C149.119 70.4249 148.576 70.8484 147.875 71.1925C147.173 71.5367 146.26 71.7087 145.135 71.7087C144.129 71.7087 143.243 71.5367 142.448 71.219C141.654 70.8881 140.94 70.3852 140.304 69.697L141.35 68.5984ZM141.601 61.4381C141.601 61.9675 141.694 62.4705 141.893 62.9337C142.091 63.397 142.356 63.8073 142.687 64.1514C143.018 64.5087 143.415 64.7867 143.865 64.9852C144.315 65.197 144.804 65.2896 145.334 65.2896C145.85 65.2896 146.34 65.197 146.803 65.0117C147.266 64.8264 147.676 64.5617 148.034 64.2308C148.391 63.8999 148.669 63.4896 148.854 63.0131C149.053 62.5499 149.132 62.0072 149.119 61.4249C149.119 60.8955 149.04 60.4058 148.868 59.9293C148.696 59.4661 148.444 59.0558 148.113 58.7117C147.782 58.3675 147.385 58.0896 146.909 57.8778C146.432 57.6661 145.903 57.5734 145.321 57.5734C144.791 57.5734 144.301 57.6793 143.851 57.8778C143.401 58.0896 143.004 58.3675 142.673 58.7117C142.343 59.069 142.078 59.4661 141.879 59.9293C141.707 60.419 141.601 60.9087 141.601 61.4381Z" fill="#123B61"/>
<path d="M160.925 66.5872C160.898 66.3093 160.872 66.0445 160.872 65.7798C160.872 65.5151 160.859 65.2504 160.859 64.9725H160.819C160.66 65.2504 160.462 65.4887 160.223 65.7269C159.985 65.9519 159.707 66.1504 159.416 66.3093C159.112 66.4813 158.794 66.6004 158.463 66.6931C158.132 66.7857 157.801 66.8254 157.471 66.8254C156.187 66.8254 155.234 66.4945 154.625 65.8063C154.016 65.1313 153.698 64.1519 153.698 62.8945V56.5284H155.115V62.0872C155.115 62.6431 155.154 63.1328 155.247 63.5695C155.326 63.9931 155.485 64.3637 155.684 64.6548C155.896 64.946 156.173 65.171 156.518 65.3166C156.862 65.4622 157.312 65.5416 157.841 65.5416C157.907 65.5416 158.106 65.5151 158.437 65.449C158.768 65.396 159.112 65.2372 159.482 64.9725C159.853 64.721 160.171 64.324 160.462 63.8078C160.753 63.2916 160.885 62.5769 160.885 61.6637V56.5151H162.301V64.3372C162.301 64.6019 162.315 64.9593 162.328 65.3695C162.354 65.7798 162.368 66.1769 162.407 66.5475H160.925V66.5872Z" fill="#123B61"/>
<path d="M172.029 60.4326V60.1812C172.029 58.4473 171.169 57.587 169.462 57.587C168.284 57.587 167.265 57.9841 166.391 58.765L165.531 57.7591C166.471 56.7929 167.887 56.3032 169.779 56.3032C170.269 56.3032 170.732 56.3694 171.182 56.515C171.632 56.6606 172.016 56.8723 172.347 57.1635C172.678 57.4547 172.943 57.8253 173.141 58.262C173.34 58.712 173.446 59.2282 173.446 59.8503V64.337C173.446 64.7209 173.459 65.1312 173.498 65.5547C173.538 65.9782 173.578 66.3223 173.618 66.6003H172.241C172.201 66.3488 172.162 66.0973 172.148 65.8062C172.122 65.515 172.122 65.237 172.122 64.9723H172.082C171.672 65.6473 171.182 66.1238 170.613 66.415C170.044 66.7062 169.356 66.8517 168.548 66.8517C168.112 66.8517 167.675 66.7856 167.265 66.6665C166.854 66.5473 166.484 66.362 166.166 66.1106C165.848 65.8591 165.584 65.5547 165.398 65.1841C165.2 64.8135 165.107 64.39 165.107 63.9135C165.107 63.1062 165.319 62.4576 165.743 61.9944C166.166 61.5312 166.696 61.187 167.331 60.9488C167.966 60.7238 168.641 60.5782 169.369 60.5253C170.097 60.4723 170.746 60.4326 171.354 60.4326H172.029ZM171.301 61.5841C170.944 61.5841 170.494 61.5973 169.965 61.637C169.435 61.6768 168.919 61.7562 168.429 61.8885C167.94 62.0209 167.516 62.2326 167.159 62.5238C166.815 62.815 166.629 63.1988 166.629 63.7018C166.629 64.0326 166.696 64.3106 166.828 64.5488C166.96 64.787 167.146 64.9723 167.371 65.1312C167.596 65.29 167.86 65.3959 168.138 65.4488C168.416 65.515 168.694 65.5415 168.985 65.5415C169.501 65.5415 169.951 65.4488 170.322 65.29C170.693 65.1179 171.023 64.8797 171.275 64.5885C171.526 64.2973 171.725 63.9532 171.844 63.5562C171.963 63.1591 172.029 62.7488 172.029 62.2988V61.5709H171.301V61.5841Z" fill="#123B61"/>
<path d="M180.46 64.8527L183.531 56.5542H185.251L180.235 69.2071C179.931 69.9748 179.547 70.5968 179.084 71.0468C178.621 71.5101 177.946 71.7351 177.085 71.7351C176.873 71.7351 176.648 71.7351 176.437 71.7218C176.212 71.7086 176 71.6689 175.788 71.5895L175.934 70.213C176.238 70.3718 176.596 70.4513 177.006 70.4513C177.509 70.4513 177.893 70.2924 178.184 69.9748C178.475 69.6571 178.726 69.2204 178.938 68.6513L179.666 66.7189L175.55 56.5542H177.337L180.46 64.8527Z" fill="#123B61"/>
<path d="M0.764648 2.81885V47.7791C0.764648 52.438 1.63818 56.8056 3.41171 60.8953C5.172 64.985 7.56759 68.5453 10.5985 71.5762C13.6294 74.6071 17.1896 77.0027 21.2794 78.763C25.3691 80.5233 29.7367 81.3968 34.3955 81.3968C39.0544 81.3968 43.422 80.5233 47.5117 78.763C51.6014 77.0027 55.1749 74.6071 58.2191 71.5762C61.2764 68.5453 63.672 64.985 65.4455 60.8953C67.2058 56.8056 68.0794 52.438 68.0794 47.7791V2.81885H0.764648Z" fill="#182B49"/>
<path fill-rule="evenodd" clip-rule="evenodd" d="M45.2749 42.2074C45.9499 42.2074 46.6117 42.1941 47.2867 42.1809C49.3514 42.1412 51.1117 41.3206 52.5014 39.7721C54.7249 37.2838 54.9367 33.7633 53.3881 30.9706C52.7396 29.8191 51.8132 28.8133 50.9926 27.7677C50.7676 27.4765 50.7146 27.2912 50.9661 26.9868C51.6411 26.1397 52.0249 25.1206 52.197 24.075C52.4484 22.5 52.3161 20.9383 51.5484 19.4956C50.2381 17.0206 48.1734 15.6574 45.3808 15.5647C42.5882 15.4721 39.7823 15.5515 36.9896 15.525C36.5396 15.525 36.4205 15.6574 36.4205 16.0941C36.4337 19.3103 36.4337 22.5397 36.4337 25.7559C34.9911 25.7427 33.5484 25.7427 32.1058 25.7824C31.0602 25.8088 30.0014 25.9412 28.9955 26.2059C25.7529 27.0397 24.2176 29.8191 23.847 32.6118C23.794 32.9824 23.9396 33.128 24.3234 33.1412C25.3029 33.1544 26.2955 33.2074 27.2749 33.2338C28.122 33.2471 28.0955 33.2471 28.3337 32.4397C28.5984 31.5397 29.1146 30.8118 30.0146 30.428C31.5234 29.7794 33.0984 30.1368 34.7396 30.0309C34.6337 32.3603 34.0249 34.3853 32.4632 36.053C31.2058 37.403 29.6176 38.1177 27.8176 38.4353C25.2632 38.8853 22.9205 38.3824 20.8558 36.8074C18.3543 34.8883 17.1102 32.2809 17.0573 29.1441C16.9911 25.4912 18.394 22.5265 21.4779 20.5015C23.622 19.0986 25.9646 18.7941 28.4396 19.5088C29.8823 19.9191 31.1264 20.6736 32.1852 21.7456C32.4499 22.0103 32.6352 22.0103 32.9132 21.7588C33.6279 21.0971 34.369 20.475 35.0837 19.8265C35.7984 19.178 35.7984 19.178 35.0837 18.5294C33.019 16.65 30.6367 15.4324 27.844 15.0353C25.369 14.678 22.9867 14.9559 20.7632 16.0412C15.9323 18.3971 13.3779 22.3941 12.822 27.6618C12.544 30.3883 13.0734 33.0089 14.3573 35.4441C15.1779 36.9927 16.1573 38.3162 17.322 39.4147V39.8647V57.0441C17.322 58.9103 17.8249 60.6441 18.8705 62.2324C20.8029 65.1838 24.3367 66.7853 27.8176 66.5074C29.1146 66.5074 32.6484 66.4544 32.6882 66.4544C34.0382 66.4544 34.2234 66.4677 35.5734 66.4544C35.719 66.4544 35.9308 66.2559 36.0102 66.0971C36.897 64.1647 37.7705 62.2324 38.6308 60.2868C38.7764 59.9559 38.9617 59.8368 39.319 59.85C42.1911 59.8633 45.0499 59.8765 47.9087 59.85C48.3984 59.85 48.6234 60.0486 48.8087 60.4589C49.669 62.3647 50.5426 64.2706 51.4161 66.1765C51.4823 66.3221 51.7073 66.4809 51.8529 66.4809C53.1896 66.5074 54.5396 66.4941 55.8764 66.4941C55.9293 66.4941 55.9955 66.4544 56.1146 66.4147C52.4882 58.3015 48.8749 50.2544 45.2749 42.2074ZM49.4308 36.728C48.9146 37.4691 48.1337 37.8662 47.2867 37.9059C45.1955 37.9853 43.0911 37.9324 40.9602 37.9324C40.6558 35.3515 41.8734 32.9162 44.0573 31.6853C44.8911 31.2088 45.7646 30.7721 46.6117 30.3088C46.9558 30.1103 47.2337 30.0971 47.5117 30.4677C48.0808 31.2353 48.7161 31.9368 49.2852 32.7044C50.1984 33.8691 50.2382 35.5897 49.4308 36.728ZM41.2646 19.7868C42.6279 19.8133 43.9779 19.7868 45.3411 19.8133C46.4264 19.8397 47.4587 20.7 47.7367 21.6397C48.3984 23.9294 47.2734 25.5574 45.4073 26.3912C44.4543 26.8147 43.4882 27.225 42.5882 27.7544C41.9529 28.1118 41.4102 28.6412 40.7352 29.1838C40.722 28.8927 40.6955 28.7206 40.6955 28.5486C40.6823 25.8088 40.7087 23.0824 40.6823 20.3427C40.6823 19.8927 40.8411 19.7736 41.2646 19.7868ZM25.2234 61.9677C23.119 61.2397 21.769 59.3868 21.769 57.1897C21.769 52.1603 21.769 47.1309 21.769 42.1015C22.5234 42.3662 23.3308 42.5647 24.1911 42.6971C27.0367 43.1338 29.7631 42.7103 32.2646 41.4133C32.2646 46.6941 32.2779 51.9618 32.2646 57.2294C32.2514 60.7236 28.6382 63.1456 25.2234 61.9677ZM36.7382 54.2647C36.7646 50.4794 36.7514 46.1383 36.7382 42.1941C36.7911 42.2074 36.844 42.2074 36.9102 42.2074C38.6573 42.1941 40.4043 42.2074 42.1514 42.2074C40.3382 46.2309 38.5382 50.2544 36.7382 54.2647ZM40.6161 55.9588C41.6484 53.7088 42.6411 51.5383 43.647 49.3809C43.6999 49.3941 43.7661 49.4074 43.819 49.4206C44.7984 51.578 45.7911 53.7221 46.797 55.9588H40.6161Z" fill="white"/>
<path d="M0.777954 0V1.99853V2.81912H68.0794V1.99853V0H0.777954Z" fill="#B09C6A"/>
</svg>
