<svg width="30" height="31" viewBox="0 0 30 31" fill="none" xmlns="http://www.w3.org/2000/svg">
<g clip-path="url(#clip0)">
<path d="M29.9237 8.82208C29.8532 7.22783 29.5954 6.13153 29.2261 5.18203C28.845 4.17381 28.259 3.27129 27.4909 2.52085C26.7405 1.75866 25.8321 1.16676 24.8356 0.791544C23.8808 0.422196 22.7904 0.164416 21.1961 0.0939518C19.5895 0.017616 19.0799 0 15.0059 0C10.9319 0 10.4222 0.017616 8.82208 0.0880799C7.22783 0.158544 6.13153 0.416324 5.18203 0.785672C4.17322 1.16618 3.2707 1.75279 2.52026 2.52026C1.75866 3.2707 1.16676 4.17968 0.791544 5.17616C0.422196 6.13153 0.164416 7.22137 0.0939519 8.81562C0.017616 10.4222 0 10.9319 0 15.0059C0 19.0799 0.017616 19.5895 0.0880799 21.1897C0.158544 22.7839 0.416324 23.8802 0.785672 24.8297C1.16676 25.8379 1.75866 26.7405 2.52085 27.4909C3.27129 28.2531 4.17968 28.845 5.17616 29.2202C6.13153 29.5895 7.22196 29.8473 8.81621 29.9178C10.4163 29.9883 10.9266 30.0059 15 30.0059C19.0734 30.0059 19.5837 29.9883 21.1838 29.9178C22.778 29.8473 23.8743 29.5895 24.8238 29.2202C26.8403 28.4404 28.4345 26.8462 29.2143 24.8297C29.5837 23.8743 29.8415 22.7839 29.9119 21.1897C29.9824 19.5895 30 19.0793 30 15.0059C30 10.9325 29.9941 10.4222 29.9237 8.82208ZM27.222 21.0728C27.1574 22.5385 26.9113 23.3294 26.7058 23.8573C26.2014 25.1644 25.1644 26.202 23.8567 26.7064C23.3294 26.9113 22.532 27.158 21.0722 27.222C19.4897 27.2924 19.0147 27.31 15.0112 27.31C11.0076 27.31 10.5267 27.2924 8.95009 27.222C7.48444 27.1574 6.69348 26.9113 6.16559 26.7064C5.51497 26.4662 4.92308 26.0851 4.44216 25.5866C3.94363 25.0998 3.56312 24.5138 3.32237 23.8632C3.11744 23.3359 2.87082 22.5385 2.80681 21.0787C2.73635 19.4962 2.71873 19.0211 2.71873 15.0176C2.71873 11.0141 2.73635 10.5332 2.80681 8.95655C2.8714 7.4909 3.11744 6.69994 3.32237 6.17205C3.56254 5.52143 3.94363 4.92954 4.44803 4.44862C4.93423 3.95009 5.52026 3.56958 6.17146 3.32942C6.69877 3.12449 7.49618 2.87786 8.95596 2.81327C10.5385 2.74281 11.0135 2.72519 15.017 2.72519C19.0264 2.72519 19.5015 2.74281 21.0781 2.81327C22.5437 2.87786 23.3347 3.1239 23.8626 3.32942C24.5132 3.56958 25.1051 3.95068 25.586 4.44862C26.0846 4.93541 26.4651 5.52143 26.7058 6.17205C26.9107 6.69935 27.1574 7.49677 27.222 8.95655C27.2924 10.539 27.31 11.0141 27.31 15.0176C27.31 19.0211 27.2918 19.4903 27.222 21.0728Z" fill="#5651CA"/>
<path d="M15.0059 7.29785C10.7504 7.29785 7.2977 10.75 7.2977 15.006C7.2977 19.262 10.7504 22.7142 15.0059 22.7142C19.2613 22.7142 22.714 19.262 22.714 15.006C22.714 10.75 19.2613 7.29785 15.0059 7.29785ZM15.0059 20.006C12.2454 20.006 10.0059 17.767 10.0059 15.006C10.0059 12.245 12.2454 10.006 15.0059 10.006C17.7669 10.006 20.0059 12.245 20.0059 15.006C20.0059 17.767 17.7669 20.006 15.0059 20.006Z" fill="#5651CA"/>
<path d="M24.8186 6.99312C24.8186 7.98666 24.0129 8.79289 23.0188 8.79289C22.0252 8.79289 21.219 7.98725 21.219 6.99312C21.219 5.999 22.0247 5.19336 23.0188 5.19336C24.0129 5.19395 24.8186 5.999 24.8186 6.99312Z" fill="#5651CA"/>
</g>
<defs>
<clipPath id="clip0">
<rect width="30" height="30.0059" fill="white"/>
</clipPath>
</defs>
</svg>
