<svg width="30" height="30" viewBox="0 0 30 30" fill="none" xmlns="http://www.w3.org/2000/svg">
<path d="M9.37559 24.7852H5.27402V11.543H9.37559V24.7852ZM9.78457 7.32422C9.78457 5.99824 8.70879 4.92188 7.3834 4.92188C6.05332 4.92188 4.98047 5.99824 4.98047 7.32422C4.98047 8.65078 6.05332 9.72656 7.38398 9.72656C8.70879 9.72656 9.78457 8.6502 9.78457 7.32422ZM24.7266 17.4996C24.7266 13.9453 23.9754 11.3086 19.8229 11.3086C17.8277 11.3086 16.4883 12.3064 15.941 13.3441H15.9375V11.543H11.9531V24.7852H15.9375V18.2104C15.9375 16.4883 16.3758 14.8201 18.5104 14.8201C20.6156 14.8201 20.6836 16.7895 20.6836 18.3193V24.7852H24.7266V17.4996ZM30 26.4844V3.51562C30 1.57676 28.4232 0 26.4844 0H3.51562C1.57676 0 0 1.57676 0 3.51562V26.4844C0 28.4232 1.57676 30 3.51562 30H26.4844C28.4232 30 30 28.4232 30 26.4844ZM26.4844 2.34375C27.1307 2.34375 27.6562 2.86934 27.6562 3.51562V26.4844C27.6562 27.1307 27.1307 27.6562 26.4844 27.6562H3.51562C2.86934 27.6562 2.34375 27.1307 2.34375 26.4844V3.51562C2.34375 2.86934 2.86934 2.34375 3.51562 2.34375H26.4844Z" fill="#5651CA"/>
</svg>
