<svg width="881" height="315" viewBox="0 0 881 315" fill="none" xmlns="http://www.w3.org/2000/svg">
<path d="M19.8523 248.907C16.6599 248.907 13.7744 248.22 11.1959 246.846C8.64813 245.471 6.63752 243.574 5.16409 241.154C3.72136 238.705 3 235.971 3 232.953C3 229.936 3.72136 227.217 5.16409 224.797C6.63752 222.348 8.66347 220.436 11.242 219.061C13.8205 217.687 16.7059 217 19.8983 217C22.2927 217 24.5028 217.388 26.5287 218.165C28.5547 218.942 30.2737 220.077 31.6857 221.571L29.5216 223.677C27.0045 221.197 23.8275 219.958 19.9904 219.958C17.4426 219.958 15.1251 220.525 13.0377 221.661C10.9504 222.796 9.3081 224.349 8.11094 226.321C6.94448 228.293 6.36125 230.504 6.36125 232.953C6.36125 235.403 6.94448 237.614 8.11094 239.586C9.3081 241.558 10.9504 243.111 13.0377 244.246C15.1251 245.382 17.4426 245.949 19.9904 245.949C23.8582 245.949 27.0352 244.695 29.5216 242.185L31.6857 244.291C30.2737 245.785 28.5394 246.935 26.4827 247.742C24.4567 248.519 22.2466 248.907 19.8523 248.907Z" fill="white"/>
<path d="M105.316 248.907C102.123 248.907 99.2223 248.22 96.6132 246.846C94.0347 245.441 92.0087 243.529 90.5353 241.109C89.0926 238.69 88.3712 235.971 88.3712 232.953C88.3712 229.936 89.0926 227.217 90.5353 224.797C92.0087 222.378 94.0347 220.48 96.6132 219.106C99.2223 217.702 102.123 217 105.316 217C108.508 217 111.378 217.687 113.926 219.061C116.504 220.436 118.53 222.348 120.004 224.797C121.477 227.217 122.214 229.936 122.214 232.953C122.214 235.971 121.477 238.705 120.004 241.154C118.53 243.574 116.504 245.471 113.926 246.846C111.378 248.22 108.508 248.907 105.316 248.907ZM105.316 245.949C107.863 245.949 110.166 245.397 112.222 244.291C114.279 243.156 115.89 241.602 117.057 239.631C118.223 237.629 118.807 235.403 118.807 232.953C118.807 230.504 118.223 228.293 117.057 226.321C115.89 224.319 114.279 222.766 112.222 221.661C110.166 220.525 107.863 219.958 105.316 219.958C102.768 219.958 100.45 220.525 98.3629 221.661C96.3062 222.766 94.6793 224.319 93.4821 226.321C92.3157 228.293 91.7324 230.504 91.7324 232.953C91.7324 235.403 92.3157 237.629 93.4821 239.631C94.6793 241.602 96.3062 243.156 98.3629 244.291C100.45 245.397 102.768 245.949 105.316 245.949Z" fill="white"/>
<path d="M209.738 217.269V248.638H206.93L186.21 223.184V248.638H182.802V217.269H185.611L206.377 242.723V217.269H209.738Z" fill="white"/>
<path d="M276.617 220.137V232.461H293.285V235.329H276.617V248.638H273.21V217.269H295.311V220.137H276.617Z" fill="white"/>
<path d="M378.09 245.77V248.638H355.298V217.269H377.4V220.137H358.706V231.295H375.374V234.119H358.706V245.77H378.09Z" fill="white"/>
<path d="M461.06 248.638L453.693 238.555C452.864 238.645 452.005 238.69 451.115 238.69H442.458V248.638H439.051V217.269H451.115C455.228 217.269 458.451 218.225 460.784 220.137C463.117 222.049 464.283 224.678 464.283 228.024C464.283 230.474 463.639 232.55 462.349 234.253C461.091 235.926 459.28 237.136 456.916 237.883L464.79 248.638H461.06ZM451.022 235.866C454.215 235.866 456.655 235.179 458.344 233.805C460.032 232.431 460.876 230.504 460.876 228.024C460.876 225.485 460.032 223.543 458.344 222.198C456.655 220.824 454.215 220.137 451.022 220.137H442.458V235.866H451.022Z" fill="white"/>
<path d="M548.068 245.77V248.638H525.276V217.269H547.378V220.137H528.684V231.295H545.352V234.119H528.684V245.77H548.068Z" fill="white"/>
<path d="M635.965 217.269V248.638H633.156L612.436 223.184V248.638H609.029V217.269H611.838L632.604 242.723V217.269H635.965Z" fill="white"/>
<path d="M713.434 248.907C710.241 248.907 707.356 248.22 704.777 246.846C702.229 245.471 700.219 243.574 698.745 241.154C697.303 238.705 696.581 235.971 696.581 232.953C696.581 229.936 697.303 227.217 698.745 224.797C700.219 222.348 702.245 220.436 704.823 219.061C707.402 217.687 710.287 217 713.48 217C715.874 217 718.084 217.388 720.11 218.165C722.136 218.942 723.855 220.077 725.267 221.571L723.103 223.677C720.586 221.197 717.409 219.958 713.572 219.958C711.024 219.958 708.706 220.525 706.619 221.661C704.532 222.796 702.889 224.349 701.692 226.321C700.526 228.293 699.943 230.504 699.943 232.953C699.943 235.403 700.526 237.614 701.692 239.586C702.889 241.558 704.532 243.111 706.619 244.246C708.706 245.382 711.024 245.949 713.572 245.949C717.44 245.949 720.617 244.695 723.103 242.185L725.267 244.291C723.855 245.785 722.121 246.935 720.064 247.742C718.038 248.519 715.828 248.907 713.434 248.907Z" fill="white"/>
<path d="M785.482 217.269H788.889V248.638H785.482V217.269Z" fill="white"/>
<path d="M872.541 240.258H854.583L850.716 248.638H847.17L861.904 217.269H865.266L880 248.638H876.409L872.541 240.258ZM871.298 237.569L863.562 220.719L855.827 237.569H871.298Z" fill="white"/>
<path d="M402.105 311.863V314.731H379.653V312.446L392.96 299.674C394.636 298.061 395.764 296.671 396.344 295.506C396.953 294.311 397.258 293.116 397.258 291.921C397.258 290.069 396.603 288.635 395.292 287.619C394.011 286.574 392.167 286.051 389.759 286.051C386.009 286.051 383.098 287.216 381.025 289.546L378.692 287.574C379.942 286.14 381.528 285.035 383.448 284.258C385.399 283.481 387.594 283.093 390.033 283.093C393.295 283.093 395.871 283.855 397.761 285.378C399.682 286.872 400.642 288.934 400.642 291.563C400.642 293.176 400.276 294.73 399.545 296.223C398.813 297.717 397.426 299.435 395.383 301.377L384.5 311.863H402.105Z" fill="white"/>
<path d="M427.963 315C425.493 315 423.283 314.358 421.332 313.073C419.411 311.788 417.902 309.951 416.805 307.561C415.738 305.141 415.204 302.303 415.204 299.047C415.204 295.79 415.738 292.967 416.805 290.577C417.902 288.157 419.411 286.305 421.332 285.02C423.283 283.735 425.493 283.093 427.963 283.093C430.432 283.093 432.627 283.735 434.548 285.02C436.499 286.305 438.023 288.157 439.12 290.577C440.218 292.967 440.767 295.79 440.767 299.047C440.767 302.303 440.218 305.141 439.12 307.561C438.023 309.951 436.499 311.788 434.548 313.073C432.627 314.358 430.432 315 427.963 315ZM427.963 312.042C429.822 312.042 431.453 311.534 432.856 310.519C434.288 309.503 435.401 308.024 436.194 306.082C436.986 304.14 437.383 301.795 437.383 299.047C437.383 296.298 436.986 293.953 436.194 292.011C435.401 290.069 434.288 288.59 432.856 287.574C431.453 286.559 429.822 286.051 427.963 286.051C426.103 286.051 424.457 286.559 423.024 287.574C421.622 288.59 420.524 290.069 419.732 292.011C418.939 293.953 418.543 296.298 418.543 299.047C418.543 301.795 418.939 304.14 419.732 306.082C420.524 308.024 421.622 309.503 423.024 310.519C424.457 311.534 426.103 312.042 427.963 312.042Z" fill="white"/>
<path d="M476.396 311.863V314.731H453.944V312.446L467.251 299.674C468.927 298.061 470.055 296.671 470.634 295.506C471.244 294.311 471.549 293.116 471.549 291.921C471.549 290.069 470.894 288.635 469.583 287.619C468.302 286.574 466.458 286.051 464.05 286.051C460.3 286.051 457.388 287.216 455.315 289.546L452.983 287.574C454.233 286.14 455.818 285.035 457.739 284.258C459.69 283.481 461.885 283.093 464.324 283.093C467.586 283.093 470.162 283.855 472.052 285.378C473.973 286.872 474.933 288.934 474.933 291.563C474.933 293.176 474.567 294.73 473.835 296.223C473.104 297.717 471.717 299.435 469.674 301.377L458.791 311.863H476.396Z" fill="white"/>
<path d="M498.545 283.362V314.731H495.253V286.23H487.708V283.362H498.545Z" fill="white"/>
<path d="M743.261 191.019V109.332C743.261 109.332 691.667 100.114 691.667 150.1C691.667 200.086 743.261 191.019 743.261 191.019Z" fill="#CB5394"/>
<path d="M3.04592 149.041L83.5614 149.041C85.3506 135.594 74.9731 109.735 44.914 108.701C9.72431 107.49 2.33023 135.594 3.04592 149.041Z" fill="#719CEC"/>
<path d="M45.6211 191.615L45.6211 108.863C31.4274 107.024 4.13184 117.69 3.04002 148.584C1.76185 184.751 31.4274 192.35 45.6211 191.615Z" fill="#719CEC"/>
<path d="M301.392 149.041L379.671 149.041C381.411 135.594 371.322 109.735 342.097 108.701C307.885 107.49 300.697 135.594 301.392 149.041Z" fill="#719CEC"/>
<path d="M339.482 191.615L339.482 108.863C326.783 107.024 302.36 117.69 301.384 148.584C300.24 184.751 326.783 192.35 339.482 191.615Z" fill="#719CEC"/>
<path d="M496.553 149.041L574.831 149.041C576.571 135.594 566.482 109.735 537.258 108.701C503.045 107.49 495.857 135.594 496.553 149.041Z" fill="#719CEC"/>
<path d="M534.643 191.615L534.643 108.863C521.943 107.024 497.521 117.69 496.544 148.584C495.4 184.751 521.943 192.35 534.643 191.615Z" fill="#719CEC"/>
<path d="M240.781 108.663V162.5H240.781C254.253 162.5 281.159 162.5 281.159 136.658C281.159 108.663 254.253 108.663 240.781 108.663Z" fill="#E8C891"/>
<path d="M200.403 191.662V108.663H240.781V191.662H200.403Z" fill="#E8C891"/>
<path d="M458.373 191.662V108.663H476.319V191.662H458.373Z" fill="#55B3BB"/>
<path d="M397.806 108.697L397.806 169.083C411.252 170.425 437.111 162.642 438.146 140.098C439.357 113.706 411.252 108.16 397.806 108.697Z" fill="#E8C891"/>
<path d="M397.806 191.661V108.662L438.184 191.661H397.806Z" fill="#E8C891"/>
<path d="M839.719 108.663L880.097 191.662L799.341 191.662L839.719 108.663Z" fill="#D078F0"/>
<path d="M94.9717 108.663L123.012 149.041L94.9717 191.662H117.404L135.35 165.865L153.295 191.662H175.727L148.809 149.041L175.727 108.663H153.295L135.35 132.216L117.404 108.663H94.9717Z" fill="white" stroke="white"/>
<path d="M669.235 191.662L592.966 108.663V191.662H669.235Z" fill="#55B3BB"/>
<path d="M653.532 108.663H675.964V191.662H653.532V108.663Z" fill="#55B3BB"/>
<path d="M761.207 108.663H781.396V191.662H761.207V108.663Z" fill="#E8C891"/>
<path d="M43.2051 50.0274V0.0140444C28.0689 -0.106735 -0.000400543 0.014034 -0.000400543 24.0205C-0.000400543 50.0274 28.0689 50.0274 43.2051 50.0274Z" fill="#55B3BB"/>
<path d="M43.2051 79.5892V29.5758C56.7479 29.455 81.8626 29.5758 81.8626 53.5822C81.8626 79.5892 56.7479 79.5892 43.2051 79.5892Z" fill="#55B3BB"/>
<path d="M191.014 79.589L272.877 0V79.589H191.014Z" fill="#CB5394"/>
<path d="M272.878 79.589L191.015 0V79.589H272.878Z" fill="#CB5394"/>
<path d="M329.727 0.000309227L370.658 79.5894L288.795 79.5893L329.727 0.000309227Z" fill="#D078F0"/>
<path d="M140.908 82.2598C137.819 82.8338 134.605 82.8279 131.525 82.2095C95.2988 74.9369 95.5068 45.8558 95.5069 0H115.858C115.858 0 111.197 62.5358 136.212 62.5342C161.226 62.5327 156.562 0 156.562 0H176.913C176.913 50.2071 176.913 75.5699 140.908 82.2598Z" fill="white"/>
<path d="M140.832 80.248C137.745 80.8317 134.526 80.8261 131.448 80.1968C97.2759 73.2105 97.4726 45.6154 97.4727 2.15991H116.803C116.803 2.15991 112.376 61.5578 136.135 61.5564C159.895 61.555 155.464 2.15991 155.464 2.15991H174.794C174.794 49.7379 174.794 73.8268 140.832 80.248Z" fill="white"/>
<path d="M97.3682 109.184L124.671 148.5L97.3682 190H119.21L136.684 164.881L154.158 190H176L149.789 148.5L176 109.184H154.158L136.684 132.118L119.21 109.184H97.3682Z" fill="white" stroke="white"/>
</svg>
