<svg width="903" height="222" viewBox="0 0 903 222" fill="none" xmlns="http://www.w3.org/2000/svg">
<path d="M140 148.872L211.918 78.9521V148.872H140Z" fill="#CB5394"/>
<path d="M211.918 148.872L140 78.9521V148.872H211.918Z" fill="#CB5394"/>
<path d="M457.638 148.873L493.597 74.9568L421.679 74.9568L457.638 148.873Z" fill="#D078F0"/>
<path d="M511.617 110.916L583.321 110.916C584.915 98.9407 575.673 75.9117 548.904 74.9905C517.565 73.9121 510.98 98.9407 511.617 110.916Z" fill="#719CEC"/>
<path d="M549.533 148.831L549.533 75.1348C536.893 73.4971 512.585 82.9957 511.612 110.509C510.474 142.718 536.893 149.486 549.533 148.831Z" fill="#719CEC"/>
<path d="M693.41 110.916L765.114 110.916C766.707 98.9407 757.466 75.9117 730.696 74.9905C699.357 73.9121 692.772 98.9407 693.41 110.916Z" fill="#719CEC"/>
<path d="M731.326 148.831L731.326 75.1348C718.686 73.4971 694.377 82.9957 693.405 110.509C692.267 142.718 718.686 149.486 731.326 148.831Z" fill="#719CEC"/>
<path d="M629.442 148.873V74.9568H645.424V148.873H629.442Z" fill="#55B3BB"/>
<path d="M599.477 74.9568L673.392 74.9568L673.392 90.9386L599.477 90.9386L599.477 74.9568Z" fill="#55B3BB"/>
<path d="M331.822 110.916L403.526 110.916C405.119 98.9407 395.878 75.9117 369.108 74.9905C337.769 73.9121 331.185 98.9407 331.822 110.916Z" fill="#719CEC"/>
<path d="M369.738 148.831L369.738 75.1348C357.098 73.4971 332.789 82.9957 331.817 110.509C330.679 142.718 357.098 149.486 369.738 148.831Z" fill="#719CEC"/>
<path d="M395.264 37L377.729 66.084L410.662 46.2835L395.264 37Z" fill="#719CEC"/>
<path d="M280.665 161.272C277.597 161.836 274.408 161.83 271.348 161.223C234.79 153.973 235 124.884 235 79H255.5C255.5 79 250.805 141.536 276.002 141.534C301.199 141.533 296.5 79 296.5 79H317C317 129.238 317 154.601 280.665 161.272Z" fill="white"/>
</svg>
