<svg width="86" height="86" viewBox="0 0 86 86" fill="none" xmlns="http://www.w3.org/2000/svg">
<path d="M81.4995 74.555C84.438 71.4985 85.9828 67.9414 85.9828 64.1997C85.9828 59.1194 83.1325 54.3883 77.9574 50.8778C72.9801 47.5019 66.3932 45.6427 59.412 45.6427C58.968 45.6427 58.5257 45.6527 58.0833 45.6677C61.2779 39.7542 62.5534 32.7548 61.2297 25.6456C60.7058 22.8485 59.8062 20.1579 58.5573 17.6501C58.1482 16.8286 57.1504 16.4927 56.3273 16.9035C55.5058 17.3125 55.1715 18.3103 55.5806 19.1335C56.6931 21.3668 57.493 23.7632 57.9603 26.2576C60.6959 40.9648 50.9625 55.1549 36.2586 57.8921C31.3496 58.8084 26.2958 58.3561 21.6429 56.5817C21.2055 56.4154 20.7183 56.4404 20.3009 56.6516C16.0204 58.8068 10.0055 59.9675 5.13299 59.6715C7.6241 54.7076 8.32088 50.595 8.67343 46.8667C8.70835 46.4975 8.61855 46.1267 8.419 45.814C6.54484 42.8806 5.26935 39.6428 4.62745 36.1905C1.89021 21.4832 11.6268 7.2932 26.3291 4.55763C33.2769 3.26218 40.3528 4.69898 46.253 8.60029C47.0197 9.10749 48.0507 8.89629 48.5579 8.12967C49.0651 7.36304 48.8539 6.33201 48.0873 5.8248C41.4654 1.44456 33.5197 -0.166847 25.7204 1.28658C9.21389 4.35807 -1.71509 20.2892 1.35806 36.7991C2.0432 40.4809 3.37191 43.9465 5.3076 47.1095C4.86026 51.3816 3.92069 55.2962 1.06538 60.1987C0.792656 60.6676 0.766049 61.2397 0.992212 61.7319C1.22004 62.2241 1.67236 62.575 2.20617 62.6715C3.59974 62.9226 5.11636 63.044 6.69617 63.044C11.5154 63.044 16.9101 61.9182 21.1407 59.9359C24.9788 61.2945 29.0414 61.8616 33.0924 61.6172C32.9244 62.4669 32.8412 63.33 32.8412 64.1964C32.8412 69.2768 35.6899 74.0079 40.865 77.5184C45.8423 80.8942 52.4293 82.7534 59.412 82.7534C63.8721 82.7534 68.254 81.9785 72.132 80.5067L83.6281 85.7567C83.8493 85.8581 84.0854 85.9064 84.3182 85.9064C84.7556 85.9064 85.1863 85.7334 85.5072 85.4075C85.9978 84.9069 86.1209 84.1536 85.8182 83.5217L81.4995 74.555ZM72.8721 77.1908C72.4563 77.0012 71.979 76.9912 71.555 77.1625C67.9064 78.6459 63.7075 79.4308 59.412 79.4308C53.0878 79.4308 47.1643 77.7745 42.7325 74.7679C38.4986 71.8959 36.1672 68.1426 36.1672 64.1981C36.1672 63.1853 36.3218 62.1792 36.6261 61.1981C36.706 61.1831 36.7875 61.1715 36.8673 61.1565C44.8162 59.6781 51.4697 55.2148 55.8916 49.1433C57.0473 49.0269 58.2264 48.9653 59.412 48.9653C65.7346 48.9653 71.6581 50.6217 76.0899 53.6283C80.3238 56.5002 82.6569 60.2552 82.6569 64.1981C82.6569 67.3477 81.1702 70.3843 78.3565 72.9785C77.8194 73.4741 77.668 74.264 77.9857 74.9225L80.826 80.8227L72.8721 77.1908Z" fill="white"/>
<path d="M48.0836 62.3389C47.1656 62.3389 46.4206 63.0889 46.4206 64.0068C46.4206 64.9248 47.1656 65.6698 48.0836 65.6698C49.0015 65.6698 49.7465 64.9248 49.7465 64.0068V63.9968C49.7465 63.0789 49.0015 62.3389 48.0836 62.3389Z" fill="white"/>
<path d="M59.41 62.3389C58.492 62.3389 57.747 63.0889 57.747 64.0068C57.747 64.9248 58.492 65.6698 59.41 65.6698C60.3279 65.6698 61.0729 64.9248 61.0729 64.0068V63.9968C61.0729 63.0789 60.3279 62.3389 59.41 62.3389Z" fill="white"/>
<path d="M70.7331 62.3389C69.8151 62.3389 69.0701 63.0889 69.0701 64.0068C69.0701 64.9248 69.8151 65.6698 70.7331 65.6698C71.6511 65.6698 72.3961 64.9248 72.3961 64.0068V63.9968C72.3961 63.0789 71.6511 62.3389 70.7331 62.3389Z" fill="white"/>
<path d="M52.8729 13.7987C53.1223 13.7987 53.3768 13.7421 53.6146 13.6224C54.4361 13.2116 54.7686 12.2122 54.3579 11.3907L54.3529 11.3807C53.9422 10.5592 52.9444 10.2316 52.1245 10.6424C51.303 11.0531 50.9721 12.0559 51.3829 12.8774C51.6755 13.4611 52.2626 13.7987 52.8729 13.7987Z" fill="white"/>
<path d="M34.7283 13.7852C31.582 13.7852 30.4345 16.7984 29.9456 18.0839L28.0864 22.9514C27.6291 24.1537 27.1535 24.6293 26.5266 24.8172C26.209 23.2491 24.8204 22.0634 23.1591 22.0634H17.1891C15.2949 22.0634 13.7534 23.6049 13.7534 25.4991V42.4646C13.7534 44.3587 15.2949 45.9003 17.1891 45.9003H23.1607C24.4412 45.9003 25.5587 45.1952 26.1491 44.1525C27.7671 44.8775 29.8043 45.3249 31.7815 45.3249H39.2948C44.5132 45.3249 48.7587 41.0793 48.7587 35.861V30.4031C48.7587 26.723 45.7621 23.7297 42.0803 23.7297H39.6241V18.6776C39.6257 15.9803 37.429 13.7852 34.7283 13.7852ZM23.2705 42.4646C23.2705 42.5195 23.2173 42.5743 23.1607 42.5743H17.1891C17.1308 42.5743 17.0793 42.5228 17.0793 42.4646V25.4991C17.0793 25.4425 17.1308 25.3893 17.1891 25.3893H23.1607C23.2156 25.3893 23.2705 25.4442 23.2705 25.4991V42.4646ZM42.0819 27.0523C43.9311 27.0523 45.4344 28.5539 45.4344 30.3998V35.8576C45.4344 39.2418 42.6806 41.9956 39.2965 41.9956H31.7832C29.6363 41.9956 27.5626 41.2739 26.5964 40.617V28.1831C28.1563 27.9652 30.0471 27.157 31.1962 24.1338L33.0537 19.2679C33.812 17.2774 34.3159 17.1111 34.7283 17.1111C35.5947 17.1111 36.2998 17.8128 36.2998 18.6776V25.391C36.2998 26.3089 37.0448 27.0539 37.9628 27.0539L42.0819 27.0523Z" fill="white"/>
</svg>
