<svg width="85" height="85" viewBox="0 0 85 85" fill="none" xmlns="http://www.w3.org/2000/svg">
<path d="M25.3909 65.8468C26.5232 64.1352 27.1839 62.0865 27.1839 59.8852C27.1839 53.9103 22.3212 49.0493 16.3429 49.0493C10.3646 49.0493 5.50186 53.9103 5.50186 59.8852C5.50186 62.0865 6.16262 64.1352 7.29487 65.8468C2.99332 67.6281 0 71.898 0 76.6992V83.3398C0 84.2563 0.743764 85 1.66019 85H31.0239C31.9404 85 32.6841 84.2563 32.6841 83.3398V76.6992C32.6841 71.8964 29.6908 67.6281 25.3909 65.8468ZM16.3429 52.3696C20.49 52.3696 23.8636 55.7414 23.8636 59.8852C23.8636 64.0322 20.49 67.4057 16.3429 67.4057C12.1957 67.4057 8.82224 64.0322 8.82224 59.8852C8.82224 55.7414 12.1957 52.3696 16.3429 52.3696ZM29.3638 81.6797H3.32038V76.6992C3.32038 72.8111 6.05637 69.4111 9.79013 68.5147C11.6114 69.9009 13.8825 70.7276 16.3429 70.7276C18.8033 70.7276 21.0744 69.9025 22.8957 68.5147C26.6294 69.4095 29.3638 72.8111 29.3638 76.6992V81.6797Z" fill="white"/>
<path d="M77.7018 65.8468C78.8324 64.1352 79.4948 62.0865 79.4948 59.8852C79.4948 53.9103 74.6321 49.0493 68.6538 49.0493C62.6788 49.0493 57.8177 53.9103 57.8177 59.8852C57.8177 62.0849 58.4785 64.1335 59.6091 65.8451C55.3075 67.6265 52.3126 71.8947 52.3126 76.6992V83.3398C52.3126 84.2563 53.0563 85 53.9727 85H83.3415C84.2579 85 85.0017 84.2563 85.0017 83.3398V76.6992C85 71.8964 82.005 67.6281 77.7018 65.8468ZM68.6521 52.3696C72.7993 52.3696 76.1728 55.7414 76.1728 59.8852C76.1728 64.0322 72.7993 67.4057 68.6521 67.4057C64.5083 67.4057 61.1365 64.0322 61.1365 59.8852C61.1365 55.7414 64.5083 52.3696 68.6521 52.3696ZM81.6796 81.6797H55.6313V76.6992C55.6313 72.8111 58.3689 69.4095 62.1027 68.5147C63.9239 69.9009 66.1934 70.7276 68.6538 70.7276C71.1142 70.7276 73.3853 69.9025 75.2066 68.5147C78.942 69.4095 81.6796 72.8111 81.6796 76.6992V81.6797Z" fill="white"/>
<path d="M68.6986 43.868C68.9709 44.0423 69.2814 44.1303 69.5935 44.1303C69.8624 44.1303 70.1314 44.0655 70.3771 43.9344C70.9067 43.6505 71.242 43.1026 71.2537 42.5017L71.3499 37.4913C75.7478 36.4139 79.0101 32.393 79.0101 27.7495C79.0101 22.8919 75.5369 18.8312 70.9449 17.9164C71.1806 16.8655 71.3018 15.7914 71.3018 14.7057C71.3001 6.5958 64.7042 0 56.5959 0H45.2684C44.352 0 43.6082 0.74375 43.6082 1.66016C43.6082 2.57656 44.352 3.32031 45.2684 3.32031H56.5959C62.873 3.32031 67.9798 8.42695 67.9798 14.704C67.9798 15.7283 67.842 16.7394 67.5697 17.7222H44.8915C39.9276 17.7222 35.7987 21.3479 35.0051 26.0894H30.5442C30.169 26.0894 29.8037 26.2172 29.5099 26.4496L19.6766 34.2706L19.5487 27.6648C19.5321 26.8165 18.878 26.1159 18.033 26.0429C12.2074 25.5349 7.64353 20.5544 7.64353 14.704C7.64353 8.42695 12.7519 3.32031 19.0324 3.32031H30.3599C31.2763 3.32031 32.0201 2.57656 32.0201 1.66016C32.0201 0.74375 31.2763 0 30.3599 0H19.0324C10.9224 0 4.32315 6.5958 4.32315 14.704C4.32315 18.3929 5.70775 21.9273 8.22459 24.655C10.3812 26.9941 13.1919 28.5547 16.2582 29.144L16.4243 37.6922C16.4359 38.323 16.8061 38.8941 17.3772 39.1614C17.603 39.2677 17.8437 39.3191 18.0845 39.3191C18.453 39.3191 18.8183 39.1963 19.1188 38.9589L31.1269 29.4097H35.0084C35.802 34.1511 39.9325 37.7769 44.8948 37.7769H59.1857L68.6986 43.868ZM38.186 27.7495C38.186 24.0507 41.1943 21.0425 44.8932 21.0425H68.9825C72.6798 21.0425 75.6897 24.0507 75.6897 27.7495C75.6897 31.196 73.0035 34.1312 69.5719 34.43C68.7269 34.503 68.0727 35.2036 68.0561 36.052L67.9914 39.4719L60.5654 34.7172C60.2981 34.5462 59.9876 34.4549 59.6705 34.4549H44.8948C41.1943 34.4565 38.186 31.4483 38.186 27.7495Z" fill="white"/>
<path d="M47.5179 26.0874C46.6015 26.0874 45.8578 26.8328 45.8578 27.7492C45.8578 28.6656 46.6015 29.4094 47.5179 29.4094C48.4344 29.4094 49.1781 28.6656 49.1781 27.7492V27.7442C49.1781 26.8278 48.436 26.0874 47.5179 26.0874Z" fill="white"/>
<path d="M56.9395 26.0874C56.0231 26.0874 55.2793 26.8328 55.2793 27.7492C55.2793 28.6656 56.0231 29.4094 56.9395 29.4094C57.8559 29.4094 58.5997 28.6656 58.5997 27.7492V27.7442C58.5997 26.8278 57.8559 26.0874 56.9395 26.0874Z" fill="white"/>
<path d="M66.3561 29.4096C67.2725 29.4096 68.0163 28.6658 68.0163 27.7494V27.7444C68.0163 26.828 67.2725 26.0859 66.3561 26.0859C65.4397 26.0859 64.6959 26.8313 64.6959 27.7478C64.6959 28.6642 65.4397 29.4096 66.3561 29.4096Z" fill="white"/>
<path d="M37.8141 3.32031H37.8241C38.7405 3.32031 39.4793 2.57656 39.4793 1.66016C39.4793 0.74375 38.7322 0 37.8158 0C36.8993 0 36.1556 0.74375 36.1556 1.66016C36.1556 2.57656 36.8977 3.32031 37.8141 3.32031Z" fill="white"/>
</svg>
