<svg width="389" height="81" viewBox="0 0 389 81" fill="none" xmlns="http://www.w3.org/2000/svg">
<path d="M19 22V0.00617615C12.3438 -0.0469377 0 0.00617157 0 10.5632C0 22 12.3438 22 19 22Z" fill="#5651CA"/>
<path d="M19 35V13.0062C24.9556 12.9531 36 13.0062 36 23.5632C36 35 24.9556 35 19 35Z" fill="#5651CA"/>
<path d="M88 35L124 0V35H88Z" fill="#CB5394"/>
<path d="M124 35L88 0V35H124Z" fill="#CB5394"/>
<path d="M150 2.24109e-06L168 35L132 35L150 2.24109e-06Z" fill="#D078F0"/>
<path d="M62.4702 35C44.0996 35 43.6285 11.9737 44.0996 0H79.8987C80.3698 11.0526 79.8987 35 62.4702 35Z" fill="#E8C891"/>
<path d="M328 80.7136V44.2983C328 44.2983 305 40.1893 305 62.4723C305 84.7553 328 80.7136 328 80.7136Z" fill="#CB5394"/>
<path d="M0.0204163 62L35.9133 62C36.7109 56.0056 32.0847 44.478 18.6847 44.0169C2.99757 43.4771 -0.29863 56.0056 0.0204163 62Z" fill="#719CEC"/>
<path d="M19 80.979L19 44.0891C12.6726 43.2693 0.504557 48.024 0.0178372 61.7963C-0.551959 77.9192 12.6726 81.3069 19 80.979Z" fill="#719CEC"/>
<path d="M132.02 62L166.916 62C167.691 56.0056 163.194 44.478 150.166 44.0169C134.914 43.4771 131.71 56.0056 132.02 62Z" fill="#719CEC"/>
<path d="M149 80.979L149 44.0891C143.339 43.2693 132.451 48.024 132.016 61.7963C131.506 77.9192 143.339 81.3069 149 80.979Z" fill="#719CEC"/>
<path d="M217.02 62L251.916 62C252.691 56.0056 248.194 44.478 235.166 44.0169C219.914 43.4771 216.71 56.0056 217.02 62Z" fill="#719CEC"/>
<path d="M234 80.979L234 44.0891C228.339 43.2693 217.451 48.024 217.016 61.7963C216.506 77.9192 228.339 81.3069 234 80.979Z" fill="#719CEC"/>
<path d="M106 44V68H106C112.006 68 124 68 124 56.48C124 44 112.006 44 106 44Z" fill="#5651CA"/>
<path d="M88 81V44H106V81H88Z" fill="#5651CA"/>
<path d="M201 81V44H209V81H201Z" fill="#55B3BB"/>
<path d="M175 44.0153L175 70.935C180.994 71.5332 192.522 68.0636 192.983 58.0135C193.523 46.2482 180.994 43.776 175 44.0153Z" fill="#E8C891"/>
<path d="M175 81V44L193 81H175Z" fill="#E8C891"/>
<path d="M371 44L389 81L353 81L371 44Z" fill="#D078F0"/>
<path d="M62.4737 67L44 44H80L62.4737 67Z" fill="#55B3BB"/>
<path d="M62.4737 58L44 81H80L62.4737 58Z" fill="#55B3BB"/>
<path d="M294 81L260 44V81H294Z" fill="#5651CA"/>
<path d="M287 44H297V81H287V44Z" fill="#5651CA"/>
<path d="M336 44H345V81H336V44Z" fill="#55B3BB"/>
</svg>
