<svg width="630" height="132" viewBox="0 0 630 132" fill="none" xmlns="http://www.w3.org/2000/svg">
<path d="M531.648 129.913V71.3009C531.648 71.3009 494.628 64.6874 494.628 100.553C494.628 136.418 531.648 129.913 531.648 129.913Z" fill="#CB5394"/>
<path d="M0.530807 99.7935L58.3021 99.7935C59.5859 90.1452 52.1398 71.591 30.5719 70.8488C5.32267 69.98 0.0172883 90.1452 0.530807 99.7935Z" fill="#719CEC"/>
<path d="M31.0792 130.34L31.0792 70.9642C20.895 69.6447 1.30996 77.2976 0.526559 99.4647C-0.390555 125.415 20.895 130.868 31.0792 130.34Z" fill="#719CEC"/>
<path d="M214.599 99.7935L270.766 99.7935C272.014 90.1452 264.775 71.591 243.806 70.8488C219.258 69.98 214.1 90.1452 214.599 99.7935Z" fill="#719CEC"/>
<path d="M241.93 130.34L241.93 70.9642C232.818 69.6447 215.294 77.2976 214.593 99.4647C213.773 125.415 232.818 130.868 241.93 130.34Z" fill="#719CEC"/>
<path d="M354.63 99.7935L410.796 99.7935C412.045 90.1452 404.805 71.591 383.836 70.8488C359.289 69.98 354.131 90.1452 354.63 99.7935Z" fill="#719CEC"/>
<path d="M381.96 130.34L381.96 70.9642C372.848 69.6447 355.325 77.2976 354.624 99.4647C353.803 125.415 372.848 130.868 381.96 130.34Z" fill="#719CEC"/>
<path d="M31.0792 35.4105V0.0104291C20.3657 -0.0750602 0.49785 0.0104217 0.49785 17.0025C0.49785 35.4105 20.3657 35.4105 31.0792 35.4105Z" fill="#55B3BB"/>
<path d="M31.0792 56.3343V20.9343C40.665 20.8488 58.4415 20.9342 58.4415 37.9263C58.4415 56.3343 40.665 56.3343 31.0792 56.3343Z" fill="#55B3BB"/>
<path d="M171.11 70.8201V109.449H171.11C180.776 109.449 200.082 109.449 200.082 90.9073C200.082 70.8201 180.776 70.8201 171.11 70.8201Z" fill="#E8C891"/>
<path d="M142.138 130.375V70.8223H171.11V130.375H142.138Z" fill="#E8C891"/>
<path d="M327.236 130.374V70.8208H340.112V130.374H327.236Z" fill="#55B3BB"/>
<path d="M135.7 56.3346L193.643 0.000488281V56.3346H135.7Z" fill="#CB5394"/>
<path d="M193.643 56.3346L135.7 0.000488281V56.3346H193.643Z" fill="#CB5394"/>
<path d="M283.778 70.8457L283.778 114.174C293.426 115.137 311.98 109.552 312.723 93.3765C313.591 74.4396 293.426 70.4606 283.778 70.8457Z" fill="#E8C891"/>
<path d="M283.778 130.375V70.8218L312.75 130.375H283.778Z" fill="#E8C891"/>
<path d="M233.882 -0.000116974L262.854 56.334L204.91 56.334L233.882 -0.000116974Z" fill="#D078F0"/>
<path d="M600.858 70.8203L629.83 130.374L571.887 130.374L600.858 70.8203Z" fill="#D078F0"/>
<path d="M66.4893 70.8203L86.6086 99.7922L66.4893 130.374H82.5847L95.4611 111.864L108.337 130.374H124.433L105.118 99.7922L124.433 70.8203H108.337L95.4611 87.7206L82.5847 70.8203H66.4893Z" fill="white" stroke="white" stroke-width="1.64065"/>
<path d="M104.529 57.2356C99.566 58.629 94.2476 58.6291 89.3195 57.1182C67.9683 50.5724 68.0987 30.5434 68.0988 0.000488281H82.5039C82.5039 0.000488281 79.2048 44.2641 96.9103 44.263C114.616 44.2619 111.314 0.000488281 111.314 0.000488281H125.719C125.719 33.4177 125.719 51.2854 104.529 57.2356Z" fill="white"/>
<path d="M478.533 130.375L423.808 70.8218V130.375H478.533Z" fill="#55B3BB"/>
<path d="M467.266 70.8208H483.362V130.374H467.266V70.8208Z" fill="#55B3BB"/>
<path d="M544.524 70.8208H559.01V130.374H544.524V70.8208Z" fill="#E8C891"/>
</svg>
