<svg width="88" height="81" viewBox="0 0 88 81" fill="none" xmlns="http://www.w3.org/2000/svg">
<path d="M36.1132 39.1841C32.6946 39.1841 29.9117 41.9652 29.9117 45.3855C29.9117 48.8058 32.6929 51.5869 36.1132 51.5869C39.5335 51.5869 42.3146 48.8058 42.3146 45.3855C42.3146 41.9652 39.5335 39.1841 36.1132 39.1841ZM36.1132 48.1853C34.5696 48.1853 33.3116 46.9291 33.3116 45.3838C33.3116 43.8385 34.5679 42.5823 36.1132 42.5823C37.6567 42.5823 38.9147 43.8385 38.9147 45.3838C38.9147 46.9291 37.6584 48.1853 36.1132 48.1853Z" fill="white"/>
<path d="M54.8398 39.1841C51.4212 39.1841 48.6384 41.9652 48.6384 45.3855C48.6384 48.8058 51.4195 51.5869 54.8398 51.5869C58.2567 51.5869 61.0361 48.8058 61.0361 45.3855C61.0361 41.9652 58.255 39.1841 54.8398 39.1841ZM54.8398 48.1853C53.2962 48.1853 52.0383 46.9291 52.0383 45.3838C52.0383 43.8385 53.2945 42.5823 54.8398 42.5823C56.3816 42.5823 57.6362 43.8385 57.6362 45.3838C57.6362 46.9291 56.3816 48.1853 54.8398 48.1853Z" fill="white"/>
<path d="M80.1861 0.209473H63.6863C62.748 0.209473 61.9864 0.97105 61.9864 1.90942C61.9864 2.8478 62.748 3.60937 63.6863 3.60937H80.1861C82.1019 3.60937 83.6607 5.16653 83.6607 7.08067V25.8311C83.6607 27.7453 82.1019 29.3024 80.1861 29.3024H31.9177C30.0035 29.3024 28.4464 27.7453 28.4464 25.8311V7.08067C28.4464 5.16653 30.0035 3.60937 31.9177 3.60937H48.4208C49.3591 3.60937 50.1207 2.8478 50.1207 1.90942C50.1207 0.97105 49.3591 0.209473 48.4208 0.209473H31.9177C28.1285 0.209473 25.0465 3.29148 25.0465 7.08067V12.7772H13.6874C10.6717 12.7772 8.21865 15.2302 8.21865 18.2459V20.9744H5.49193C2.47622 20.9744 0.0231934 23.4274 0.0231934 26.4414V64.3265C0.0231934 67.3422 2.47622 69.7952 5.49193 69.7952H10.5918V78.8747C10.5918 79.4748 10.908 80.0306 11.4248 80.3366C11.6917 80.4947 11.9925 80.5746 12.2917 80.5746C12.5722 80.5746 12.8527 80.5049 13.106 80.3672L32.4718 69.7952H66.7377C69.7535 69.7952 72.2065 67.3422 72.2065 64.3265V61.5981H74.9349C77.9506 61.5981 80.4036 59.1451 80.4036 56.1293V32.6955C84.0942 32.5816 87.0623 29.5472 87.0623 25.8311V7.08067C87.0606 3.29148 83.9769 0.209473 80.1861 0.209473ZM11.6203 18.2459C11.6203 17.1053 12.5484 16.1771 13.6891 16.1771H25.0482V20.9744H11.6203V18.2459ZM68.8049 64.3282C68.8049 65.4502 67.858 66.397 66.736 66.397H32.0367C31.7528 66.397 31.4723 66.4684 31.2224 66.6044L13.99 76.0103V68.0953C13.99 67.1569 13.2284 66.3953 12.29 66.3953H5.49023C4.34957 66.3953 3.42139 65.4672 3.42139 64.3265V26.4414C3.42139 25.3007 4.34957 24.3726 5.49023 24.3726H25.0465V25.8294C25.0465 29.6186 28.1285 32.7006 31.9177 32.7006H68.8049V64.3282ZM74.9332 58.1982H72.2048V32.6989H77.002V56.1293C77.002 57.2513 76.0552 58.1982 74.9332 58.1982Z" fill="white"/>
<path d="M35.7426 7.84229C34.8042 7.84229 34.0426 8.60386 34.0426 9.54224V23.3526C34.0426 24.1669 34.6206 24.8673 35.4196 25.022C35.5556 25.0475 35.6508 25.0662 37.1909 25.0662C37.9321 25.0662 39.0116 25.0628 40.5908 25.0526C41.5292 25.0475 42.2857 24.2808 42.2806 23.3424C42.2755 22.4075 41.5139 21.6527 40.5806 21.6527C40.5772 21.6527 40.5738 21.6527 40.5704 21.6527C39.6133 21.6595 38.4013 21.6646 37.4425 21.6646V9.54224C37.4425 8.60386 36.6809 7.84229 35.7426 7.84229Z" fill="white"/>
<path d="M46.7293 7.84229C45.7909 7.84229 45.0294 8.60386 45.0294 9.54224V23.3679C45.0294 24.3063 45.7909 25.0679 46.7293 25.0679C47.6677 25.0679 48.4293 24.3063 48.4293 23.3679V9.54224C48.4293 8.60386 47.6677 7.84229 46.7293 7.84229Z" fill="white"/>
<path d="M76.3646 11.3682C77.303 11.3682 78.0645 10.6066 78.0645 9.66821C78.0645 8.72984 77.303 7.96826 76.3646 7.96826H70.5916C69.6532 7.96826 68.8916 8.72984 68.8916 9.66821V23.3681C68.8916 24.3065 69.6532 25.0681 70.5916 25.0681H76.3646C77.303 25.0681 78.0645 24.3065 78.0645 23.3681C78.0645 22.4297 77.303 21.6682 76.3646 21.6682H72.2915V18.2156H75.9396C76.878 18.2156 77.6395 17.454 77.6395 16.5156C77.6395 15.5772 76.878 14.8157 75.9396 14.8157H72.2915V11.3682H76.3646Z" fill="white"/>
<path d="M57.2979 23.7234C57.5801 24.5275 58.3417 25.0664 59.1933 25.0664H59.2001C60.0569 25.063 60.8185 24.519 61.0973 23.7098C61.099 23.703 61.1007 23.6979 61.1041 23.6928L65.6192 10.1034C65.9149 9.21262 65.4322 8.25045 64.5414 7.95466C63.6506 7.65886 62.6884 8.14165 62.3926 9.03242L59.1678 18.7391L55.7815 8.98653C55.4739 8.09915 54.5049 7.62997 53.6175 7.93766C52.7301 8.24535 52.2609 9.21432 52.5686 10.1017L57.2979 23.7234Z" fill="white"/>
<path d="M17.3882 39.1841C13.9713 39.1841 11.1919 41.9652 11.1919 45.3855C11.1919 48.8058 13.9713 51.5869 17.3882 51.5869C20.8068 51.5869 23.5896 48.8058 23.5896 45.3855C23.5896 41.9652 20.8068 39.1841 17.3882 39.1841ZM17.3882 48.1853C15.8464 48.1853 14.5918 46.9291 14.5918 45.3838C14.5918 43.8385 15.8464 42.5823 17.3882 42.5823C18.9318 42.5823 20.1897 43.8385 20.1897 45.3838C20.1897 46.9291 18.9335 48.1853 17.3882 48.1853Z" fill="white"/>
<path d="M56.0536 3.60937H56.0638C57.0022 3.60937 57.7586 2.8478 57.7586 1.90942C57.7586 0.97105 56.992 0.209473 56.0536 0.209473C55.1152 0.209473 54.3536 0.97105 54.3536 1.90942C54.3536 2.8478 55.1152 3.60937 56.0536 3.60937Z" fill="white"/>
</svg>
