<svg id="Capa_1" data-name="Capa 1" xmlns="http://www.w3.org/2000/svg" viewBox="0 0 230.09 182.33">
<defs><style>.cls-1{fill:#e8c891;}.cls-2{fill:#d078f0;}.cls-3{fill:#719cec;}.cls-4{fill:#55b3bb;}.cls-5{fill:#cb5394;}</style></defs>
<title>Textura 4</title>
<g><path class="cls-1" d="M63.27,59V93.06h0c8.53,0,25.55,0,25.55-16.35C88.82,59,71.8,59,63.27,59Z" transform="translate(0 -59)"/></g>
<g><path class="cls-1" d="M37.73,111.51V59H63.27v52.51Z" transform="translate(0 -59)"/></g>
<g><path class="cls-2" d="M102.59,110.12l25.5,52h-51Z" transform="translate(0 -59)"/></g>
<g><path class="cls-3" d="M0,192.49H48.25c1.08-8.28-5.14-24.21-23.14-24.85C4,166.9-.4,184.21,0,192.49Z" transform="translate(0 -59)"/></g>
<g><path class="cls-3" d="M23.49,218.73v-51C15.67,166.61.62,173.18,0,192.21-.68,214.5,15.67,219.18,23.49,218.73Z" transform="translate(0 -59)"/></g>
<g><path class="cls-4" d="M85.27,195.1V174.49c-6.24-.06-17.81,0-17.81,9.89C67.46,195.1,79,195.1,85.27,195.1Z" transform="translate(0 -59)"/></g>
<g><path class="cls-4" d="M85.27,207.29V186.67c5.58,0,15.93,0,15.93,9.9C101.2,207.29,90.85,207.29,85.27,207.29Z" transform="translate(0 -59)"/></g>
<g><path class="cls-5" d="M165.09,174V151.31s-14-2.55-14,11.3S165.09,174,165.09,174Z" transform="translate(0 -59)"/></g>
<g><path class="cls-1" d="M219.52,172.2V188c3.52.35,10.29-1.69,10.56-7.59C230.4,173.51,223,172.06,219.52,172.2Z" transform="translate(0 -59)"/></g>
<g><path class="cls-1" d="M219.52,193.92V172.19l10.57,21.73Z" transform="translate(0 -59)"/></g>
<g><path class="cls-5" d="M37.73,241.33l21.72-21.12v21.12Z" transform="translate(0 -59)"/></g>
<g><path class="cls-5" d="M59.46,241.33,37.73,220.21v21.12Z" transform="translate(0 -59)"/></g>
</svg>