<svg id="Capa_1" data-name="Capa 1" xmlns="http://www.w3.org/2000/svg" viewBox="0 0 331.34 500.28">
<defs><style>.cls-1{fill:#d078f0;}.cls-2{fill:#e8c891;}.cls-3{fill:#719cec;}.cls-4{fill:#55b3bb;}.cls-5{fill:#cb5394;}</style></defs>
<title>Textura 6</title>
<g><path class="cls-1" d="M245.4,515.65,290,503.46,263.15,473Z" transform="translate(-43 -68)"/></g>
<g><path class="cls-2" d="M63.6,135v27.47h0c-6.87,0-20.6,0-20.6-13.18C43,135,56.73,135,63.6,135Z" transform="translate(-43 -68)"/></g>
<g><path class="cls-2" d="M84.21,177.35V135H63.6v42.35Z" transform="translate(-43 -68)"/></g>
<g><path class="cls-2" d="M328.93,419.46l20.63-18.14h0c4.54,5.16,13.61,15.46,3.71,24.17C342.54,434.93,333.47,424.63,328.93,419.46Z" transform="translate(-43 -68)"/></g>
<g><path class="cls-2" d="M347.11,376l-31.79,28,13.61,15.46,31.8-28Z" transform="translate(-43 -68)"/></g>
<g><path class="cls-1" d="M144,142l-14,29h28Z" transform="translate(-43 -68)"/></g>
<g><path class="cls-3" d="M278.86,301.38,323,351.5c-7.63,8.69-29.87,16.8-47-1.33C255.92,329,269.86,308.52,278.86,301.38Z" transform="translate(-43 -68)"/></g>
<g><path class="cls-3" d="M327.58,301.78l-53,46.63c-8.33-7.1-15.27-28.74,4-46.77C301.08,280.53,320.9,293.24,327.58,301.78Z" transform="translate(-43 -68)"/></g>
<g><path class="cls-4" d="M148,215.28l-12.49,11c-3.35-3.75-9.49-10.78-3.49-16C138.49,204.49,144.65,211.5,148,215.28Z" transform="translate(-43 -68)"/></g>
<g><path class="cls-4" d="M155.36,208.78l-12.49,11c2.95,3.41,8.49,9.65,14.49,4.38C163.85,218.43,158.33,212.16,155.36,208.78Z" transform="translate(-43 -68)"/></g>
<g><path class="cls-5" d="M346.56,484l-13.62,12s-8.85-6.95-.51-14.29S346.56,484,346.56,484Z" transform="translate(-43 -68)"/></g>
<g><path class="cls-2" d="M323,564.57l9.57-8.42c2.08,1.94,4.46,7.13,1,10.44C329.59,570.46,324.8,566.78,323,564.57Z" transform="translate(-43 -68)"/></g>
<g><path class="cls-2" d="M336.15,553,323,564.58l18.79-5.18Z" transform="translate(-43 -68)"/></g>
<g><path class="cls-5" d="M291,407.37l-1.21,24.41,12.79-11.25Z" transform="translate(-43 -68)"/></g>
<g><path class="cls-5" d="M302.57,420.53l-24.37-1.9L291,407.37Z" transform="translate(-43 -68)"/></g>
<g><path class="cls-4" d="M193.19,312.7,240.7,261v51.7Z" transform="translate(-43 -68)"/></g>
<g><path class="cls-4" d="M203,261H189v51.7h14Z" transform="translate(-43 -68)"/></g>
<g><path class="cls-5" d="M363.27,158.12,270.58,68v90.12Z" transform="translate(-43 -68)"/></g>
<g><path class="cls-5" d="M270.58,158.12,363.27,68v90.12Z" transform="translate(-43 -68)"/></g>
<g><path class="cls-1" d="M336.34,183l-38,75h76Z" transform="translate(-43 -68)"/></g>
</svg>