<svg id="Capa_1" data-name="Capa 1" xmlns="http://www.w3.org/2000/svg" viewBox="0 0 353.09 584.32">
<defs><style>.cls-1{fill:#e8c891;}.cls-2{fill:#d078f0;}.cls-3{fill:#719cec;}.cls-4{fill:#55b3bb;}.cls-5{fill:#cb5394;}</style></defs>
<title>Textura 5</title><path class="cls-1" d="M260,170h22v94H260Z" transform="translate(0 -27)"/>
<g><path class="cls-2" d="M171.86,581.81,116.62,566.7l33.24-37.77Z" transform="translate(0 -27)"/></g>
<g><path class="cls-1" d="M251.27,316v34.06h0c8.53,0,25.55,0,25.55-16.35C276.82,316,259.8,316,251.27,316Z" transform="translate(0 -27)"/></g>
<g><path class="cls-1" d="M225.73,368.51V316h25.54v52.51Z" transform="translate(0 -27)"/></g>
<g><path class="cls-1" d="M56.29,462.74l-25.57-22.5h0c-5.63,6.4-16.87,19.18-4.6,30C39.42,481.92,50.66,469.14,56.29,462.74Z" transform="translate(0 -27)"/></g>
<g><path class="cls-1" d="M33.75,408.88l39.42,34.69L56.29,462.74,16.88,428.06Z" transform="translate(0 -27)"/></g>
<g><path class="cls-2" d="M290.59,367.12l25.5,52h-51Z" transform="translate(0 -27)"/></g>
<g><path class="cls-3" d="M188,449.5h48.23c1.07-8.29-5.15-24.22-23.15-24.86C192,423.9,187.6,441.21,188,449.5Z" transform="translate(0 -27)"/></g>
<g><path class="cls-3" d="M211.49,475.73v-51c-7.82-1.13-22.87,5.44-23.47,24.47C187.32,471.5,203.67,476.18,211.49,475.73Z" transform="translate(0 -27)"/></g>
<g><path class="cls-3" d="M118.37,316.35,63.69,378.48c9.46,10.78,37,20.83,58.27-1.64C146.82,350.53,129.53,325.19,118.37,316.35Z" transform="translate(0 -27)"/></g>
<g><path class="cls-3" d="M58,316.84l65.69,57.81c10.33-8.8,18.92-35.63-4.92-58C90.83,290.49,66.26,306.25,58,316.84Z" transform="translate(0 -27)"/></g>
<g><path class="cls-4" d="M273.27,452.1V431.48c-6.24-.05-17.81,0-17.81,9.9C255.46,452.1,267,452.1,273.27,452.1Z" transform="translate(0 -27)"/></g>
<g><path class="cls-4" d="M273.27,464.29V443.67c5.58-.05,15.93,0,15.93,9.9C289.2,464.29,278.85,464.29,273.27,464.29Z" transform="translate(0 -27)"/></g>
<g><path class="cls-4" d="M89.64,514.26l15.47,13.62c4.16-4.65,11.77-13.37,4.34-19.91C101.4,500.89,93.76,509.57,89.64,514.26Z" transform="translate(0 -27)"/></g>
<g><path class="cls-4" d="M80.49,506.21,96,519.83c-3.65,4.22-10.53,12-18,5.42C70,518.17,76.8,510.4,80.49,506.21Z" transform="translate(0 -27)"/></g>
<g><path class="cls-5" d="M353.09,431V408.31s-14-2.56-14,11.3S353.09,431,353.09,431Z" transform="translate(0 -27)"/></g>
<g><path class="cls-5" d="M34.43,542.78l16.9,14.87s11-8.62.63-17.72S34.43,542.78,34.43,542.78Z" transform="translate(0 -27)"/></g>
<g><path class="cls-1" d="M93.6,606.72,81.73,596.28c-2.58,2.41-5.53,8.84-1.28,12.94C85.43,614,91.38,609.46,93.6,606.72Z" transform="translate(0 -27)"/></g>
<g><path class="cls-1" d="M77.3,592.38l16.31,14.35-23.29-6.42Z" transform="translate(0 -27)"/></g>
<g><path class="cls-5" d="M225.73,498.33l21.72-21.12v21.12Z" transform="translate(0 -27)"/></g>
<g><path class="cls-5" d="M247.46,498.33l-21.73-21.12v21.12Z" transform="translate(0 -27)"/></g>
<g><path class="cls-5" d="M103.33,447.75l1.5,30.27L89,464.06Z" transform="translate(0 -27)"/></g>
<g><path class="cls-5" d="M89,464.06l30.2-2.35-15.85-13.95Z" transform="translate(0 -27)"/></g>
<g><path class="cls-4" d="M200.58,268.25l-85.1-92.61v92.61Z" transform="translate(0 -27)"/></g>
<g><path class="cls-4" d="M183.06,175.64h25v92.61h-25Z" transform="translate(0 -27)"/></g>
<g><path class="cls-5" d="M13.72,138.73,128.64,27V138.73Z" transform="translate(0 -27)"/></g>
<g><path class="cls-5" d="M128.64,138.73,13.72,27V138.73Z" transform="translate(0 -27)"/></g>
<g><path class="cls-2" d="M47,170l47,93H0Z" transform="translate(0 -27)"/></g>
</svg>