<svg width="29" height="30" viewBox="0 0 29 30" fill="none" xmlns="http://www.w3.org/2000/svg">
<path d="M21.2352 28.4484C18.6614 29.6123 16.4305 30 13.3845 30C6.26354 30 0 24.8705 0 16.4227C0 7.62937 6.34891 0 16.0447 0C23.5949 0 29 5.21578 29 12.457C29 18.75 25.4824 22.7156 20.8494 22.7156C18.8331 22.7156 17.3747 21.6811 17.1601 19.3964H17.0743C15.7447 21.5948 13.8142 22.7156 11.5404 22.7156C8.75197 22.7156 6.73566 20.6466 6.73566 17.1117C6.73566 11.8533 10.5966 7.06875 16.7738 7.06875C18.6614 7.06875 20.806 7.54312 21.879 8.14641L20.5923 16.1208C20.1636 18.6633 20.4636 19.8277 21.6649 19.8703C23.5095 19.9134 25.8258 17.5425 25.8258 12.5859C25.8258 6.9825 22.2224 2.62875 15.5725 2.62875C9.00949 2.62875 3.26053 7.80141 3.26053 16.0341C3.26053 23.2322 7.85065 27.3272 14.2429 27.3272C16.4309 27.3272 18.7477 26.8533 20.4631 25.9477L21.2352 28.4484ZM17.4172 10.6467C17.0738 10.5605 16.6446 10.4742 16.0871 10.4742C13.2563 10.4742 11.0249 13.2759 11.0249 16.5947C11.0249 18.2325 11.7545 19.267 13.1699 19.267C14.7571 19.267 16.4305 17.2411 16.8163 14.7413L17.4172 10.6467Z" fill="#5651CA"/>
</svg>
