<svg width="89" height="89" viewBox="0 0 89 89" fill="none" xmlns="http://www.w3.org/2000/svg">
<g clip-path="url(#clip0)">
<path d="M71.5818 26.3638C72.5248 26.3638 73.2901 25.5985 73.2901 24.6555V6.07835C73.2901 3.25291 70.9908 0.953613 68.1653 0.953613H5.98521C3.15977 0.953613 0.860474 3.25291 0.860474 6.07835V83.291C0.860474 86.1165 3.15977 88.4158 5.98521 88.4158H68.1653C70.9908 88.4158 73.2901 86.1165 73.2901 83.291V70.7064C73.2901 69.7634 72.5248 68.9981 71.5818 68.9981C70.6389 68.9981 69.8736 69.7634 69.8736 70.7064V83.291C69.8736 84.2323 69.1066 84.9993 68.1653 84.9993H5.98521C5.04397 84.9993 4.27696 84.2323 4.27696 83.291V6.07835C4.27696 5.13711 5.04397 4.3701 5.98521 4.3701H68.1653C69.1066 4.3701 69.8736 5.13711 69.8736 6.07835V24.6555C69.8736 25.5985 70.6389 26.3638 71.5818 26.3638Z" fill="white"/>
<path d="M37.0753 10.1782C28.4094 10.1782 21.3594 17.2281 21.3594 25.8941C21.3594 30.3902 23.2573 34.449 26.2928 37.3171C26.3492 37.3786 26.4107 37.435 26.4756 37.4879C29.2737 40.0469 32.9943 41.6099 37.0753 41.6099C41.1563 41.6099 44.8769 40.0469 47.6733 37.4879C47.7399 37.435 47.7997 37.3769 47.856 37.3171C50.8933 34.4507 52.7912 30.3902 52.7912 25.8941C52.7912 17.2281 45.7412 10.1782 37.0753 10.1782ZM37.0753 38.1934C34.2857 38.1934 31.7114 37.259 29.6461 35.6874C31.1477 33.026 33.9492 31.3605 37.0753 31.3605C40.2014 31.3605 43.0029 33.026 44.5045 35.6874C42.4392 37.259 39.8649 38.1934 37.0753 38.1934ZM34.3421 25.2108V24.1004C34.3421 22.5937 35.5686 21.3672 37.0753 21.3672C38.582 21.3672 39.8085 22.5937 39.8085 24.1004V25.2108C39.8085 26.7175 38.582 27.944 37.0753 27.944C35.5686 27.944 34.3421 26.7175 34.3421 25.2108ZM46.9729 33.1849C45.7122 31.316 43.9664 29.864 41.9404 28.9655C42.745 27.9252 43.225 26.6235 43.225 25.2091V24.0987C43.225 20.7078 40.4662 17.949 37.0753 17.949C33.6844 17.949 30.9256 20.7078 30.9256 24.0987V25.2091C30.9256 26.6218 31.4056 27.9252 32.2102 28.9655C30.1825 29.8623 28.4367 31.316 27.1777 33.1849C25.6693 31.1435 24.7759 28.6221 24.7759 25.8941C24.7759 19.1123 30.2936 13.5947 37.0753 13.5947C43.857 13.5947 49.3747 19.1123 49.3747 25.8941C49.3747 28.6221 48.4812 31.1435 46.9729 33.1849Z" fill="white"/>
<path d="M46.2998 75.7749H37.0752C36.1323 75.7749 35.367 76.5402 35.367 77.4832C35.367 78.4261 36.1323 79.1914 37.0752 79.1914H46.2998C47.2427 79.1914 48.008 78.4261 48.008 77.4832C48.008 76.5402 47.2427 75.7749 46.2998 75.7749Z" fill="white"/>
<path d="M46.2998 66.2085H22.0427C21.0998 66.2085 20.3345 66.9738 20.3345 67.9167C20.3345 68.8597 21.0998 69.625 22.0427 69.625H46.2998C47.2428 69.625 48.008 68.8597 48.008 67.9167C48.008 66.9738 47.2428 66.2085 46.2998 66.2085Z" fill="white"/>
<path d="M46.2998 56.6426H22.0427C21.0998 56.6426 20.3345 57.4079 20.3345 58.3508C20.3345 59.2938 21.0998 60.0591 22.0427 60.0591H46.2998C47.2428 60.0591 48.008 59.2938 48.008 58.3508C48.008 57.4079 47.2428 56.6426 46.2998 56.6426Z" fill="white"/>
<path d="M15.9545 47.5767C15.6368 47.259 15.1961 47.0762 14.7451 47.0762C14.2958 47.0762 13.8551 47.259 13.5374 47.5767C13.2196 47.8944 13.0369 48.3351 13.0369 48.7844C13.0369 49.2337 13.2196 49.6744 13.5374 49.9921C13.8568 50.3099 14.2958 50.4927 14.7451 50.4927C15.1961 50.4927 15.6351 50.3099 15.9545 49.9921C16.2723 49.6744 16.4551 49.2337 16.4551 48.7844C16.4551 48.3351 16.2723 47.8944 15.9545 47.5767Z" fill="white"/>
<path d="M15.9545 57.1431C15.6351 56.8254 15.1961 56.6426 14.7451 56.6426C14.2958 56.6426 13.8568 56.8254 13.5374 57.1431C13.2196 57.4608 13.0369 57.9016 13.0369 58.3508C13.0369 58.8001 13.2196 59.2408 13.5374 59.5586C13.8568 59.8763 14.2958 60.0591 14.7451 60.0591C15.1961 60.0591 15.6351 59.8763 15.9545 59.5586C16.2723 59.2408 16.4551 58.8001 16.4551 58.3508C16.4551 57.9016 16.2723 57.4608 15.9545 57.1431Z" fill="white"/>
<path d="M15.9545 66.709C15.6351 66.3913 15.1961 66.2085 14.7451 66.2085C14.2958 66.2085 13.8568 66.3913 13.5374 66.709C13.2196 67.0267 13.0369 67.4675 13.0369 67.9167C13.0369 68.366 13.2196 68.8067 13.5374 69.1245C13.8551 69.4422 14.2958 69.625 14.7451 69.625C15.1961 69.625 15.6368 69.4422 15.9545 69.1245C16.2723 68.8067 16.4551 68.366 16.4551 67.9167C16.4551 67.4675 16.2723 67.0267 15.9545 66.709Z" fill="white"/>
<path d="M46.2998 47.0762H22.0427C21.0998 47.0762 20.3345 47.8415 20.3345 48.7844C20.3345 49.7274 21.0998 50.4927 22.0427 50.4927H46.2998C47.2428 50.4927 48.008 49.7274 48.008 48.7844C48.008 47.8415 47.2428 47.0762 46.2998 47.0762Z" fill="white"/>
<path d="M84.7353 23.2156C83.0766 22.2572 81.1429 22.0027 79.2911 22.4981C77.4394 22.9935 75.8934 24.1807 74.9351 25.8411L53.4369 63.0758C53.319 63.2808 53.2455 63.5062 53.2182 63.7403L51.7047 77.2935C51.6295 77.9682 51.9609 78.6225 52.5486 78.9624C52.8133 79.1162 53.1089 79.1913 53.4027 79.1913C53.7597 79.1913 54.1167 79.0803 54.4157 78.8582L65.3963 70.7714C65.5859 70.6313 65.7448 70.4537 65.8626 70.2504L87.3592 33.0175C89.339 29.5907 88.1604 25.1937 84.7353 23.2156ZM55.5346 73.7916L56.3255 66.7143L61.2692 69.5688L55.5346 73.7916ZM63.7598 67.0628L57.2497 63.3047L74.5012 33.4257L81.0114 37.1839L63.7598 67.0628ZM84.4022 31.3075L82.7179 34.2235L76.2078 30.4654L77.8921 27.5494C78.3943 26.6799 79.204 26.0581 80.1743 25.7984C81.1446 25.5388 82.1576 25.672 83.0254 26.1742C83.8949 26.6765 84.5167 27.4862 84.7763 28.4565C85.0377 29.4267 84.9044 30.438 84.4022 31.3075Z" fill="white"/>
</g>
<defs>
<clipPath id="clip0">
<rect width="87.4604" height="87.4622" fill="white" transform="translate(0.860474 0.953613)"/>
</clipPath>
</defs>
</svg>
